<svg width="236" height="200" viewBox="0 0 236 200" fill="none" xmlns="http://www.w3.org/2000/svg">
<g id="active-support/cuate">
<g id="background-complete">
<path id="Vector" d="M218.868 61.0587L222.996 54.4411L220.957 53.1789C220.668 52.9954 220.436 52.7353 220.287 52.4277C220.137 52.12 220.076 51.7769 220.11 51.4366C220.144 51.0598 220.157 50.6814 220.15 50.3032C220.137 49.9577 220.22 49.6154 220.391 49.3147C220.561 49.014 220.812 48.7666 221.115 48.6005L223.214 47.472L219.531 40.6068L217.433 41.7353C217.137 41.8955 216.803 41.9706 216.468 41.9522C216.132 41.9339 215.808 41.8228 215.532 41.6314C215.193 41.395 214.841 41.1769 214.478 40.978C214.183 40.8157 213.938 40.5749 213.771 40.2823C213.604 39.9897 213.522 39.6566 213.532 39.3199L213.607 36.9342L205.826 36.6917L205.752 39.0873C205.741 39.4245 205.636 39.7521 205.45 40.0335C205.264 40.3149 205.003 40.5391 204.697 40.6811C204.514 40.7652 204.336 40.8592 204.158 40.9533C203.98 41.0473 203.801 41.1513 203.628 41.2552C203.342 41.4312 203.012 41.5243 202.675 41.5243C202.339 41.5243 202.009 41.4312 201.723 41.2552L199.683 39.9931L195.58 46.6107L197.624 47.8778C197.911 48.062 198.141 48.3216 198.289 48.6281C198.438 48.9347 198.499 49.2762 198.466 49.6152C198.433 49.9937 198.419 50.3737 198.426 50.7536C198.438 51.0981 198.354 51.4391 198.183 51.7388C198.013 52.0384 197.763 52.2851 197.461 52.4513L195.362 53.5798L199.04 60.44L201.143 59.3164C201.449 59.1557 201.793 59.083 202.138 59.1066C202.482 59.1302 202.813 59.2491 203.094 59.4501C203.405 59.6665 203.727 59.8664 204.059 60.049C204.363 60.2056 204.617 60.4446 204.792 60.7386C204.967 61.0327 205.056 61.37 205.049 61.7121L204.974 64.1176L212.76 64.3601L212.835 61.9694C212.849 61.6285 212.957 61.2982 213.147 61.0151C213.338 60.732 213.603 60.5073 213.914 60.3658C214.087 60.2816 214.26 60.1975 214.433 60.1034C214.606 60.0094 214.77 59.9153 214.928 59.8213C215.22 59.6407 215.556 59.545 215.898 59.545C216.241 59.545 216.577 59.6407 216.868 59.8213L218.868 61.0587ZM212.988 55.7032C211.905 56.4819 210.606 56.9016 209.272 56.9035C207.938 56.9054 206.638 56.4894 205.553 55.7138C204.468 54.9382 203.653 53.8422 203.223 52.5797C202.793 51.3172 202.77 49.9517 203.156 48.6752C203.543 47.3988 204.319 46.2755 205.377 45.4632C206.435 44.6509 207.721 44.1906 209.054 44.1468C210.387 44.1031 211.7 44.4781 212.808 45.2193C213.917 45.9604 214.766 47.0304 215.235 48.2787C215.729 49.5911 215.777 51.0299 215.371 52.3721C214.964 53.7143 214.127 54.8851 212.988 55.7032Z" fill="#EBEBEB"/>
<path id="Vector_2" d="M14.8785 122.216C15.085 122.339 15.2536 122.516 15.3655 122.728C15.4773 122.94 15.5281 123.18 15.512 123.419C15.512 123.553 15.512 123.686 15.512 123.82C15.512 123.954 15.512 124.092 15.512 124.226C15.5282 124.464 15.478 124.702 15.367 124.914C15.2561 125.125 15.0887 125.302 14.8834 125.424L13.4282 126.275L16.1555 131.002L17.5859 130.166C17.7947 130.046 18.033 129.987 18.2736 129.995C18.5142 130.004 18.7475 130.08 18.9471 130.215C19.174 130.363 19.4086 130.498 19.6499 130.621C19.8641 130.728 20.0445 130.893 20.1711 131.097C20.2978 131.3 20.3657 131.535 20.3676 131.774V133.442H25.8122V131.774C25.8186 131.533 25.8919 131.298 26.0239 131.097C26.1559 130.895 26.3413 130.733 26.5596 130.631C26.8009 130.508 27.0356 130.373 27.2625 130.225C27.462 130.09 27.6953 130.014 27.9359 130.005C28.1766 129.997 28.4148 130.056 28.6236 130.175L30.0739 131.012L32.8011 126.285L31.3459 125.444C31.1394 125.323 30.9706 125.146 30.8587 124.935C30.7468 124.723 30.6961 124.485 30.7124 124.246C30.7124 124.112 30.7124 123.979 30.7124 123.845C30.7124 123.711 30.7124 123.578 30.7124 123.444C30.6916 123.2 30.74 122.956 30.8521 122.739C30.9642 122.522 31.1354 122.341 31.3459 122.216L32.8011 121.38L30.0739 116.653L28.6286 117.49C28.4199 117.609 28.182 117.668 27.9417 117.66C27.7013 117.652 27.4678 117.578 27.2674 117.445C27.0389 117.296 26.8026 117.159 26.5596 117.034C26.3454 116.927 26.165 116.762 26.0384 116.559C25.9118 116.355 25.8438 116.121 25.8419 115.881V114.213H20.3973V115.881C20.3954 116.121 20.3275 116.355 20.2008 116.559C20.0742 116.762 19.8938 116.927 19.6796 117.034C19.4366 117.159 19.2003 117.296 18.9718 117.445C18.7714 117.578 18.5379 117.652 18.2976 117.66C18.0572 117.668 17.8194 117.609 17.6107 117.49L16.1654 116.653L13.4381 121.38L14.8785 122.216ZM23.1147 119.351C23.9957 119.351 24.857 119.612 25.5895 120.101C26.3221 120.591 26.8931 121.287 27.2302 122.101C27.5674 122.915 27.6556 123.81 27.4837 124.674C27.3119 125.538 26.8876 126.332 26.2646 126.955C25.6416 127.578 24.8478 128.002 23.9837 128.174C23.1196 128.346 22.2239 128.258 21.4099 127.921C20.5959 127.584 19.9002 127.013 19.4107 126.28C18.9213 125.548 18.66 124.686 18.66 123.805C18.6639 122.626 19.135 121.497 19.97 120.665C20.805 119.833 21.9358 119.365 23.1147 119.365V119.351Z" fill="#EBEBEB"/>
<path id="Vector_3" d="M185.413 35.1919L183.824 28.3961L181.731 28.891C181.432 28.9584 181.121 28.9412 180.831 28.8416C180.542 28.7419 180.286 28.5637 180.092 28.3268C179.875 28.0652 179.642 27.8172 179.395 27.5843C179.168 27.3727 179.005 27.1024 178.923 26.8037C178.841 26.5049 178.843 26.1892 178.929 25.8916L179.543 23.8474L172.861 21.8279L172.242 23.8771C172.158 24.1658 171.994 24.4253 171.771 24.6264C171.547 24.8275 171.271 24.9623 170.975 25.0155C170.61 25.0797 170.248 25.164 169.891 25.2679C169.601 25.3535 169.293 25.3561 169.002 25.2757C168.711 25.1952 168.448 25.0348 168.243 24.8125L166.758 23.2584L161.675 28.0348L163.16 29.5988C163.366 29.8195 163.508 30.0932 163.568 30.3895C163.628 30.6857 163.605 30.9929 163.501 31.2768C163.442 31.45 163.382 31.6183 163.328 31.7717C163.274 31.9252 163.229 32.1232 163.189 32.2964C163.118 32.5897 162.967 32.8575 162.753 33.0706C162.539 33.2836 162.27 33.4336 161.977 33.5041L159.883 33.9991L161.477 40.7949L163.575 40.3C163.875 40.2338 164.186 40.252 164.475 40.3525C164.765 40.453 165.02 40.6319 165.214 40.8692C165.432 41.1285 165.663 41.3763 165.907 41.6116C166.133 41.8222 166.296 42.0915 166.379 42.3896C166.461 42.6876 166.459 43.0026 166.372 43.2994L165.753 45.3436L172.435 47.3631L173.054 45.3139C173.147 45.0192 173.319 44.7558 173.553 44.5531C173.786 44.3504 174.071 44.2163 174.376 44.1656C174.709 44.1057 175.04 44.028 175.366 43.933C175.658 43.842 175.969 43.834 176.266 43.9101C176.562 43.9861 176.831 44.1432 177.043 44.3636L178.528 45.9376L183.617 41.1562L182.132 39.5971C181.926 39.3707 181.786 39.0923 181.728 38.7921C181.669 38.4919 181.694 38.1814 181.8 37.8944C181.859 37.7311 181.914 37.5678 181.963 37.3995C182.013 37.2312 182.057 37.0678 182.102 36.9045C182.17 36.6041 182.32 36.3286 182.536 36.1091C182.752 35.8896 183.025 35.7348 183.325 35.6621L185.413 35.1919ZM178.296 35.5236C178.102 36.7021 177.544 37.7903 176.7 38.6354C175.856 39.4805 174.768 40.04 173.59 40.2354C172.411 40.4307 171.201 40.2521 170.13 39.7246C169.058 39.197 168.179 38.3471 167.615 37.2942C167.051 36.2413 166.831 35.0382 166.986 33.8539C167.141 32.6696 167.663 31.5635 168.479 30.6911C169.295 29.8186 170.363 29.2236 171.534 28.9895C172.706 28.7554 173.921 28.8941 175.009 29.386C176.156 29.9045 177.1 30.787 177.694 31.8968C178.289 33.0065 178.5 34.2814 178.296 35.5236Z" fill="#EBEBEB"/>
<path id="Vector_4" d="M86.8754 49.4626C89.8118 31.1712 77.364 13.9626 59.0725 11.0262C40.781 8.08986 23.5725 20.5376 20.6361 38.8291C17.6997 57.1206 30.1475 74.3292 48.439 77.2655C66.7305 80.2019 83.939 67.7541 86.8754 49.4626Z" fill="#EBEBEB"/>
<path id="Vector_5" d="M55.2927 76.8926C72.9682 76.8926 87.297 62.5638 87.297 44.8883C87.297 27.2128 72.9682 12.8839 55.2927 12.8839C37.6172 12.8839 23.2883 27.2128 23.2883 44.8883C23.2883 62.5638 37.6172 76.8926 55.2927 76.8926Z" fill="#DBDBDB"/>
<path id="Vector_6" d="M55.2925 74.8732C71.8527 74.8732 85.2774 61.4485 85.2774 44.8883C85.2774 28.328 71.8527 14.9034 55.2925 14.9034C38.7323 14.9034 25.3076 28.328 25.3076 44.8883C25.3076 61.4485 38.7323 74.8732 55.2925 74.8732Z" fill="white"/>
<path id="Vector_7" opacity="0.5" d="M84.5991 38.528C70.943 46.7988 48.5014 60.3707 35.959 67.81C32.4129 64.8205 29.6089 61.049 27.7673 56.7921L69.2502 18.3483C73.1252 20.3894 76.5069 23.2533 79.1584 26.7392C81.8098 30.2251 83.6667 34.2487 84.5991 38.528Z" fill="#EBEBEB"/>
<path id="Vector_8" opacity="0.5" d="M85.2526 45.9376C85.1437 49.2726 84.4744 52.5655 83.2728 55.6785L45.8733 73.3685C44.2442 72.8282 42.6645 72.1493 41.1514 71.3391C52.4514 64.8006 73.0914 52.9215 85.2526 45.9376Z" fill="#EBEBEB"/>
<path id="Vector_9" d="M55.5796 17.0812H55.0005V21.625H55.5796V17.0812Z" fill="#C7C7C7"/>
<path id="Vector_10" d="M41.6368 20.6578L41.1353 20.9474L43.4071 24.8824L43.9087 24.5929L41.6368 20.6578Z" fill="#C7C7C7"/>
<path id="Vector_11" d="M31.3513 30.7341L31.0618 31.2356L34.9968 33.5075L35.2863 33.006L31.3513 30.7341Z" fill="#C7C7C7"/>
<path id="Vector_12" d="M32.0291 44.6012H27.4854V45.1803H32.0291V44.6012Z" fill="#C7C7C7"/>
<path id="Vector_13" d="M34.9985 56.2805L31.0635 58.5524L31.353 59.0539L35.288 56.782L34.9985 56.2805Z" fill="#C7C7C7"/>
<path id="Vector_14" d="M43.4065 64.8967L41.1367 68.8329L41.6384 69.1222L43.9082 65.186L43.4065 64.8967Z" fill="#C7C7C7"/>
<path id="Vector_15" d="M55.5796 68.1516H55.0005V72.6953H55.5796V68.1516Z" fill="#C7C7C7"/>
<path id="Vector_16" d="M67.171 64.8943L66.6694 65.1838L68.9413 69.1188L69.4428 68.8293L67.171 64.8943Z" fill="#C7C7C7"/>
<path id="Vector_17" d="M75.5803 56.2678L75.2908 56.7693L79.2258 59.0412L79.5153 58.5397L75.5803 56.2678Z" fill="#C7C7C7"/>
<path id="Vector_18" d="M83.0997 44.6012H78.5559V45.1803H83.0997V44.6012Z" fill="#C7C7C7"/>
<path id="Vector_19" d="M79.2275 30.7419L75.2925 33.0138L75.582 33.5153L79.517 31.2434L79.2275 30.7419Z" fill="#C7C7C7"/>
<path id="Vector_20" d="M68.9417 20.6612L66.6719 24.5974L67.1735 24.8867L69.4434 20.9505L68.9417 20.6612Z" fill="#C7C7C7"/>
<path id="Vector_21" d="M55.7279 19.1403L56.7129 46.9127L53.8718 46.878L54.9558 19.1304L55.7279 19.1403Z" fill="#C7C7C7"/>
<path id="Vector_22" d="M73.0269 35.2068L54.342 47.1304L52.9858 44.6309L72.6607 34.5237L73.0269 35.2068Z" fill="#A6A6A6"/>
<path id="Vector_23" d="M56.2626 44.8883C56.2626 45.084 56.2045 45.2754 56.0957 45.4382C55.987 45.601 55.8324 45.7279 55.6515 45.8028C55.4706 45.8778 55.2715 45.8974 55.0795 45.8592C54.8875 45.821 54.7111 45.7267 54.5727 45.5882C54.4342 45.4498 54.3399 45.2734 54.3017 45.0814C54.2635 44.8894 54.2831 44.6903 54.3581 44.5094C54.433 44.3285 54.5599 44.1739 54.7227 44.0652C54.8855 43.9564 55.0769 43.8983 55.2726 43.8983C55.5352 43.8983 55.787 44.0026 55.9726 44.1883C56.1583 44.3739 56.2626 44.6257 56.2626 44.8883Z" fill="#C7C7C7"/>
<path id="Vector_24" d="M200.01 135.239C200.01 135.239 192.259 133.482 188.012 129.567C183.765 125.651 181.419 118.643 181.419 118.643C184.365 119.209 187.268 119.973 190.111 120.93C191.176 122.024 192.063 123.278 192.739 124.647C192.804 123.762 192.804 122.874 192.739 121.989C193.73 122.418 194.658 122.981 195.496 123.662C199.015 126.745 200.01 135.239 200.01 135.239Z" fill="#DBDBDB"/>
<path id="Vector_25" d="M186.23 122.053C185.176 121.321 184.102 120.618 183.048 119.88C183.034 119.872 183.024 119.858 183.02 119.842C183.016 119.826 183.019 119.81 183.028 119.796C183.036 119.782 183.05 119.772 183.066 119.769C183.081 119.765 183.098 119.768 183.112 119.776C185.092 120.969 187.072 122.251 188.982 123.578C189.645 124.043 190.299 124.528 190.962 125.023L190.828 124.79C190.596 124.404 190.333 124.018 190.106 123.637C189.618 122.862 189.067 122.128 188.457 121.444C188.457 121.42 188.457 121.38 188.497 121.405C189.101 122.103 189.705 122.791 190.254 123.528C190.517 123.88 190.749 124.246 190.992 124.617C191.11 124.81 191.229 125.003 191.338 125.201L191.457 125.399C192.447 126.186 193.437 127.008 194.362 127.874C194.937 128.408 195.491 128.968 196.03 129.537C195.728 128.601 195.466 127.651 195.12 126.731C195.12 126.724 195.122 126.718 195.127 126.713C195.132 126.708 195.138 126.706 195.144 126.706C195.151 126.706 195.157 126.708 195.162 126.713C195.167 126.718 195.169 126.724 195.169 126.731C195.506 127.72 195.877 128.671 196.159 129.666C196.753 130.309 197.317 130.972 197.852 131.646C197.846 131.602 197.838 131.559 197.827 131.517C197.738 131.155 197.649 130.789 197.55 130.428C197.362 129.725 197.154 129.027 196.916 128.344C196.471 126.916 195.766 125.582 194.838 124.409C194.838 124.384 194.838 124.35 194.872 124.374C196.326 126.184 197.342 128.305 197.842 130.571C197.924 130.901 198.004 131.231 198.08 131.561C198.119 131.735 198.164 131.913 198.193 132.096C198.431 132.413 198.659 132.729 198.876 133.061C200.199 135.081 201.299 137.239 202.158 139.496C203.122 142.029 203.949 144.614 204.633 147.237C204.633 147.247 204.629 147.257 204.621 147.265C204.614 147.272 204.604 147.276 204.593 147.276C204.583 147.276 204.573 147.272 204.565 147.265C204.558 147.257 204.554 147.247 204.554 147.237C203.034 142.703 201.49 138.1 198.896 134.051C198.347 133.195 197.753 132.368 197.124 131.576C195.841 131.494 194.575 131.243 193.358 130.829C192.027 130.381 190.758 129.767 189.581 129.002C188.91 128.551 188.264 128.064 187.646 127.542C187.616 127.518 187.646 127.478 187.675 127.503C188.759 128.374 189.954 129.097 191.229 129.651C192.482 130.226 193.793 130.665 195.139 130.962C195.709 131.086 196.293 131.18 196.872 131.259C196.154 130.375 195.391 129.529 194.585 128.725C194.323 128.463 194.055 128.23 193.783 127.963C192.88 127.332 191.923 126.782 190.922 126.32C189.65 125.706 188.403 125.058 187.146 124.419C186.433 124.058 185.73 123.686 185.017 123.34C184.988 123.34 185.017 123.281 185.042 123.295C186.319 123.909 187.611 124.483 188.898 125.072C190.106 125.627 191.328 126.186 192.491 126.834L192.64 126.924C191.591 126.008 190.502 125.142 189.388 124.3C188.345 123.538 187.293 122.789 186.23 122.053Z" fill="#A6A6A6"/>
<path id="Vector_26" d="M186.671 126.047C187.304 126.325 187.943 126.567 188.566 126.859C189.19 127.151 189.819 127.513 190.427 127.849C190.433 127.852 190.438 127.858 190.44 127.864C190.441 127.871 190.441 127.878 190.437 127.884C190.434 127.89 190.429 127.894 190.422 127.896C190.416 127.898 190.409 127.897 190.403 127.894C189.784 127.597 189.16 127.32 188.547 127.013C187.933 126.706 187.299 126.359 186.656 126.077C186.626 126.082 186.641 126.033 186.671 126.047Z" fill="#A6A6A6"/>
<path id="Vector_27" d="M225.184 96.1863C223.752 98.033 222.941 100.285 222.867 102.621C222.843 103.314 222.951 104.284 223.031 105.422C221.095 106.542 219.38 108.006 217.972 109.743C219.52 108.845 221.298 108.42 223.085 108.521C223.042 109.299 222.943 110.073 222.788 110.837C221.661 110.836 220.544 111.056 219.502 111.486C220.522 111.473 221.533 111.673 222.471 112.075C221.09 116.47 216.982 120.984 205.643 122.899C204.444 117.511 205.154 111.874 207.652 106.952C211.048 100.27 225.184 96.1863 225.184 96.1863Z" fill="#DBDBDB"/>
<path id="Vector_28" d="M201.713 141.708C201.906 139.832 202.153 137.956 202.445 136.095C203.019 132.358 203.782 128.653 204.732 124.993C205.176 123.277 205.723 121.59 206.37 119.94C206.336 119.637 206.321 119.333 206.326 119.029C206.326 118.668 206.326 118.306 206.326 117.94C206.326 117.217 206.37 116.49 206.43 115.767C206.545 114.333 206.779 112.911 207.128 111.515C207.335 110.709 207.573 109.912 207.811 109.115C207.811 109.108 207.813 109.102 207.818 109.097C207.822 109.093 207.829 109.09 207.835 109.09C207.842 109.09 207.848 109.093 207.853 109.097C207.857 109.102 207.86 109.108 207.86 109.115C207.485 110.508 207.205 111.925 207.024 113.357C206.822 114.768 206.695 116.189 206.642 117.613C206.642 117.999 206.642 118.39 206.642 118.781C206.642 118.945 206.642 119.113 206.642 119.276C207.198 117.919 207.836 116.596 208.553 115.317C209.703 113.289 211 111.349 212.434 109.511C212.436 109.297 212.466 109.084 212.523 108.877C212.577 108.625 212.631 108.382 212.691 108.12C212.803 107.602 212.932 107.087 213.077 106.576C213.359 105.546 213.73 104.556 214.067 103.541C214.067 103.535 214.069 103.529 214.074 103.524C214.079 103.519 214.085 103.517 214.092 103.517C214.098 103.517 214.104 103.519 214.109 103.524C214.114 103.529 214.116 103.535 214.116 103.541C213.819 104.531 213.621 105.586 213.389 106.605C213.275 107.1 213.166 107.595 213.052 108.125L212.889 108.882C212.891 108.902 212.891 108.922 212.889 108.942C213.349 108.362 213.814 107.793 214.295 107.234C216.458 104.695 218.833 102.349 221.224 100.027C221.516 99.7401 221.818 99.463 222.115 99.1808L222.15 99.2155C219.868 101.601 217.621 104.007 215.492 106.531C214.997 107.13 214.502 107.734 214.007 108.353C214.265 108.174 214.502 108.006 214.78 107.858C215.438 107.427 216.106 107.006 216.794 106.62C217.482 106.234 218.175 105.858 218.883 105.506C219.591 105.155 220.368 104.853 221.09 104.447C221.12 104.447 221.145 104.482 221.115 104.492C220.398 104.823 219.706 105.207 219.046 105.64C218.358 106.046 217.665 106.462 216.992 106.892C216.319 107.323 215.656 107.729 215.012 108.159C214.458 108.516 213.918 108.907 213.344 109.238C212.004 110.933 210.764 112.704 209.632 114.545C208.946 115.7 208.32 116.889 207.756 118.108L208.162 117.93L209.201 117.47C209.87 117.173 210.538 116.886 211.206 116.594C212.478 116.039 213.77 115.534 215.017 114.926C215.721 114.596 216.402 114.221 217.056 113.802C217.086 113.802 217.111 113.827 217.081 113.847C214.76 115.45 212.132 116.579 209.578 117.717L208.464 118.212C208.157 118.346 207.85 118.499 207.533 118.618C206.772 120.321 206.132 122.076 205.618 123.87C204.601 127.48 203.775 131.141 203.143 134.838C202.495 138.54 202.054 142.262 201.718 146.014C201.673 146.48 201.628 146.945 201.579 147.415C201.579 147.454 201.563 147.492 201.535 147.52C201.508 147.548 201.47 147.564 201.43 147.564C201.391 147.564 201.353 147.548 201.325 147.52C201.298 147.492 201.282 147.454 201.282 147.415C201.322 145.48 201.52 143.599 201.713 141.708Z" fill="#A6A6A6"/>
<path id="Vector_29" d="M208.612 110.397C208.82 109.243 209.107 108.12 209.439 106.991C209.439 106.985 209.441 106.978 209.446 106.974C209.451 106.969 209.457 106.967 209.464 106.967C209.47 106.967 209.476 106.969 209.481 106.974C209.486 106.978 209.488 106.985 209.488 106.991C209.201 108.1 208.993 109.229 208.79 110.352C208.588 111.476 208.39 112.649 208.226 113.817H208.197C208.271 112.67 208.41 111.528 208.612 110.397Z" fill="#A6A6A6"/>
<path id="Vector_30" d="M213.498 113.525C214.29 113.006 215.117 112.543 215.973 112.139C216.384 111.921 216.804 111.718 217.22 111.515C217.636 111.312 218.101 111.134 218.527 110.916C218.561 110.916 218.586 110.951 218.556 110.966C218.141 111.174 217.745 111.426 217.339 111.649L216.067 112.317C215.235 112.763 214.424 113.253 213.552 113.614C213.542 113.613 213.532 113.61 213.524 113.605C213.515 113.599 213.508 113.592 213.502 113.583C213.497 113.575 213.494 113.565 213.493 113.555C213.492 113.544 213.494 113.534 213.498 113.525Z" fill="#A6A6A6"/>
<path id="Vector_31" opacity="0.1" d="M199.866 121.816C199.866 121.816 192.699 120.103 189.408 115.292C186.26 110.699 185.245 102.868 185.166 102.18C185.294 102.814 186.774 109.654 191.655 112.842C195.392 115.287 199.005 117.292 199.866 121.816Z" fill="#A6A6A6"/>
<path id="Vector_32" d="M193.249 109.427C194.524 110.599 195.44 112.11 195.892 113.782C195.363 112.151 194.452 110.669 193.234 109.461C193.189 109.441 193.224 109.402 193.249 109.427Z" fill="#A6A6A6"/>
<path id="Vector_33" d="M199.866 121.816C199.866 121.816 192.699 120.103 189.408 115.292C186.26 110.699 185.245 102.868 185.166 102.18C185.164 102.164 185.164 102.147 185.166 102.131C185.166 102.131 188.606 107.021 192.219 108.268C195.832 109.516 200.906 113.827 199.866 121.816Z" fill="#DBDBDB"/>
<path id="Vector_34" d="M186.428 104.828C187.071 106.146 187.812 107.414 188.646 108.62C189.488 109.765 190.488 110.787 191.615 111.654C192.605 112.426 193.595 113.139 194.585 113.886L194.56 113.852C194.377 113.574 194.179 113.307 193.976 113.05C193.565 112.525 193.115 112.03 192.665 111.54C191.774 110.55 190.863 109.625 190.066 108.57C189.62 107.994 189.234 107.373 188.913 106.719C188.913 106.689 188.947 106.675 188.962 106.719C190.125 109.139 192.452 110.679 194.105 112.738C194.342 113.028 194.563 113.33 194.768 113.644C194.933 113.871 195.072 114.114 195.184 114.371C196.091 115.1 196.911 115.93 197.629 116.846C197.566 116.376 197.47 115.911 197.342 115.455C197.176 114.816 196.919 114.205 196.58 113.639C196.58 113.609 196.61 113.579 196.624 113.609C196.975 114.176 197.255 114.782 197.461 115.416C197.612 115.918 197.7 116.436 197.723 116.96C198.076 117.442 198.399 117.946 198.688 118.47L198.599 118.009C198.461 117.296 198.302 116.584 198.104 115.876C197.767 114.441 197.184 113.074 196.382 111.837C196.382 111.807 196.407 111.783 196.426 111.807C197.247 113.031 197.89 114.364 198.337 115.767C198.565 116.47 198.748 117.183 198.906 117.905C198.985 118.257 199.06 118.613 199.124 118.969C199.159 119.153 199.198 119.341 199.228 119.529C199.939 121.09 200.495 122.719 200.886 124.389C201.587 127.376 202.096 130.405 202.41 133.457C202.783 136.652 202.949 139.868 202.905 143.084C202.905 143.485 202.876 143.886 202.856 144.292C202.856 144.396 202.693 144.411 202.688 144.292C202.618 142.698 202.579 141.109 202.485 139.515C202.391 137.922 202.252 136.338 202.079 134.754C201.757 131.638 201.262 128.543 200.594 125.483C200.015 122.86 199.263 120.222 197.827 117.925C197.115 116.782 196.244 115.747 195.238 114.851C194.249 113.946 193.135 113.159 192.076 112.322C191.003 111.508 190.029 110.571 189.175 109.531C188.297 108.373 187.533 107.133 186.893 105.828C186.725 105.502 186.552 105.18 186.398 104.838C186.369 104.828 186.413 104.799 186.428 104.828Z" fill="#A6A6A6"/>
<path id="Vector_35" d="M226.179 118.643C226.179 118.643 226.293 128.834 220.2 131.774C214.107 134.714 210.845 132.269 206.702 133.259C206.86 133.017 209.815 128.765 214.517 127.597C219.358 126.384 224.714 122.89 226.179 118.643Z" fill="#DBDBDB"/>
<path id="Vector_36" opacity="0.1" d="M226.179 118.643C226.179 118.643 226.293 128.834 220.2 131.774C214.107 134.714 210.845 132.269 206.702 133.259C208.889 132.215 211.228 131.525 213.631 131.215C217.477 130.74 224.818 128.24 226.179 118.643Z" fill="#A6A6A6"/>
<path id="Vector_37" d="M206.301 133.432C207.026 132.772 207.843 132.221 208.726 131.794C208.855 131.73 208.988 131.68 209.122 131.621C209.256 131.561 209.256 131.462 209.325 131.388C209.508 131.2 209.701 131.017 209.899 130.844C210.282 130.514 210.692 130.219 211.127 129.963C212.117 129.369 213.24 128.973 214.275 128.399C214.304 128.399 214.329 128.433 214.299 128.448C213.804 128.71 213.309 129.002 212.815 129.294C212.32 129.586 211.825 129.844 211.369 130.146C210.944 130.416 210.54 130.719 210.162 131.052C210.053 131.146 209.954 131.245 209.85 131.349C210.523 131.123 211.211 130.941 211.909 130.804C213.022 130.576 214.151 130.418 215.265 130.18C215.812 130.065 216.352 129.919 216.883 129.745C217.378 129.339 217.873 128.933 218.368 128.493C218.948 127.961 219.476 127.376 219.947 126.745C219.949 126.742 219.951 126.74 219.954 126.738C219.957 126.736 219.961 126.735 219.964 126.734C219.967 126.733 219.971 126.733 219.974 126.734C219.978 126.735 219.981 126.736 219.984 126.738C219.987 126.74 219.989 126.742 219.991 126.745C219.993 126.748 219.995 126.752 219.995 126.755C219.996 126.758 219.996 126.762 219.995 126.765C219.995 126.769 219.993 126.772 219.991 126.775C219.26 127.773 218.431 128.695 217.517 129.527C217.779 129.428 218.041 129.324 218.294 129.205C220.386 128.268 222.182 126.775 223.486 124.889C223.486 124.86 223.55 124.889 223.53 124.914C222.424 126.533 220.995 127.907 219.333 128.948C218.5 129.467 217.61 129.889 216.68 130.205C215.599 130.539 214.496 130.798 213.379 130.982C212.286 131.161 211.208 131.418 210.152 131.749C209.18 132.081 208.267 132.562 207.444 133.175C205.891 134.38 204.641 135.931 203.791 137.704C202.704 140.046 202.024 142.557 201.782 145.128C201.782 145.237 201.599 145.237 201.609 145.128C201.856 140.867 202.999 136.407 206.301 133.432Z" fill="#A6A6A6"/>
<path id="Vector_38" d="M213.374 130.136C213.691 129.661 214.121 129.271 214.626 129.002C215.201 128.698 215.706 128.279 216.111 127.77C216.111 127.74 216.175 127.77 216.155 127.795C215.789 128.261 215.343 128.66 214.839 128.973C214.286 129.269 213.798 129.673 213.403 130.161C213.394 130.161 213.359 130.136 213.374 130.136Z" fill="#A6A6A6"/>
<path id="Vector_39" d="M210.142 140.956L209.865 146.559L209.013 163.675H196.233L195.382 146.559L195.105 140.956H210.142Z" fill="#EBEBEB"/>
<path id="Vector_40" d="M210.142 140.956L209.865 146.559H195.382L195.105 140.956H210.142Z" fill="#DBDBDB"/>
<path id="Vector_41" d="M211.038 138.615H194.209V143.96H211.038V138.615Z" fill="#EBEBEB"/>
</g>
<g id="Shadow">
<path id="Vector_42" d="M117.569 200C182.5 200 235.137 194.176 235.137 186.992C235.137 179.808 182.5 173.985 117.569 173.985C52.6373 173.985 0 179.808 0 186.992C0 194.176 52.6373 200 117.569 200Z" fill="#EBEBEB"/>
</g>
<g id="Desk">
<path id="Vector_43" d="M9.05273 163.675L36.1817 163.556L63.3107 163.511L117.569 163.432L171.827 163.511L198.955 163.556L226.084 163.675L198.955 163.798L171.827 163.843L117.569 163.922L63.3107 163.843L36.1817 163.798L9.05273 163.675Z" fill="#263238"/>
</g>
<g id="Device">
<path id="Vector_44" d="M199.441 61.0934H34.8655V171.183H199.441V61.0934Z" fill="#DBDBDB"/>
<path id="Vector_45" d="M198.243 62.4347H36.0632V169.837H198.243V62.4347Z" fill="#37474F"/>
<path id="Vector_46" d="M220.872 179.434H13.4282V186.987H220.872V179.434Z" fill="#C7C7C7"/>
<path id="Vector_47" d="M13.4282 179.434L34.8651 171.183H199.441L220.872 179.434H13.4282Z" fill="#DBDBDB"/>
<path id="Vector_48" d="M36.7808 176.509L50.61 171.183H183.696L197.525 176.509H36.7808Z" fill="#37474F"/>
<path id="Vector_49" d="M189.076 70.5967H45.2251V161.68H189.076V70.5967Z" fill="white"/>
<path id="Vector_50" d="M189.081 70.5967H45.1062V74.101H189.081V70.5967Z" fill="#A6A6A6"/>
<path id="Vector_51" d="M47.8927 72.3488C47.8927 72.5211 47.8416 72.6896 47.7459 72.8328C47.6501 72.9761 47.5141 73.0877 47.3549 73.1537C47.1957 73.2196 47.0206 73.2368 46.8516 73.2032C46.6826 73.1696 46.5274 73.0867 46.4055 72.9648C46.2837 72.843 46.2007 72.6878 46.1671 72.5188C46.1335 72.3498 46.1508 72.1746 46.2167 72.0155C46.2826 71.8563 46.3943 71.7202 46.5375 71.6245C46.6808 71.5288 46.8492 71.4777 47.0215 71.4777C47.1361 71.477 47.2497 71.4991 47.3557 71.5427C47.4617 71.5862 47.558 71.6504 47.639 71.7314C47.72 71.8124 47.7841 71.9087 47.8277 72.0147C47.8712 72.1207 47.8933 72.2343 47.8927 72.3488Z" fill="#C7C7C7"/>
<path id="Vector_52" d="M50.5704 73.22C51.0515 73.22 51.4415 72.83 51.4415 72.3488C51.4415 71.8677 51.0515 71.4777 50.5704 71.4777C50.0892 71.4777 49.6992 71.8677 49.6992 72.3488C49.6992 72.83 50.0892 73.22 50.5704 73.22Z" fill="white"/>
<path id="Vector_53" d="M54.9906 72.3488C54.9906 72.5211 54.9395 72.6896 54.8437 72.8328C54.748 72.9761 54.612 73.0877 54.4528 73.1537C54.2936 73.2196 54.1185 73.2368 53.9495 73.2032C53.7805 73.1696 53.6253 73.0867 53.5034 72.9648C53.3816 72.843 53.2986 72.6878 53.265 72.5188C53.2314 72.3498 53.2487 72.1746 53.3146 72.0155C53.3805 71.8563 53.4922 71.7202 53.6355 71.6245C53.7787 71.5288 53.9471 71.4777 54.1194 71.4777C54.234 71.477 54.3476 71.4991 54.4536 71.5427C54.5596 71.5862 54.6559 71.6504 54.7369 71.7314C54.8179 71.8124 54.882 71.9087 54.9256 72.0147C54.9691 72.1207 54.9912 72.2343 54.9906 72.3488Z" fill="#FFC727"/>
</g>
<g id="Character">
<path id="Vector_54" d="M77.2836 62.999C72.042 69.9285 71.7103 80.1891 71.7103 80.1891C71.7103 80.1891 67.2853 91.0783 69.6958 96.31C70.3479 97.7999 71.3514 99.1094 72.6203 100.127C73.8891 101.144 75.3857 101.838 76.9817 102.151L75.9918 99.2105C75.9918 99.2105 78.5062 102.814 85.2872 103.452C92.0682 104.091 100.453 100.834 104.64 97.9088C107.127 96.1917 109.126 93.8587 110.441 91.1377L109.372 95.7705C109.372 95.7705 115.708 94.642 118.524 87.3561C121.34 80.0703 109.12 71.8588 107.882 69.8938C106.645 67.9288 103.324 52.8176 87.6284 57.7375C87.6185 57.7177 80.8919 58.2226 77.2836 62.999Z" fill="#263238"/>
<path id="Vector_55" d="M74.6107 102.086C72.6704 101.487 70.9034 99.854 69.7303 98.2404C68.4687 96.5458 67.8117 94.4772 67.8643 92.3652C67.9584 89.831 68.9532 87.465 69.9184 85.1585C70.9083 82.7728 72.0913 80.4514 73.0466 78.0558C73.0961 77.9221 72.8981 77.8479 72.8239 77.9568C71.6326 79.835 70.5501 81.7801 69.5818 83.7825C68.5621 85.6317 67.7614 87.5934 67.1961 89.628C66.6684 91.5034 66.689 93.4907 67.2555 95.3548C67.7874 96.8685 68.6832 98.2282 69.864 99.3145C71.2548 100.621 72.8981 101.354 74.5463 102.255C74.5574 102.259 74.5692 102.261 74.581 102.26C74.5928 102.26 74.6045 102.257 74.6153 102.253C74.6261 102.248 74.6358 102.241 74.6439 102.232C74.6521 102.224 74.6584 102.214 74.6627 102.203C74.6669 102.192 74.6689 102.18 74.6686 102.168C74.6682 102.156 74.6656 102.144 74.6608 102.134C74.6559 102.123 74.649 102.113 74.6404 102.105C74.6318 102.097 74.6217 102.09 74.6107 102.086Z" fill="#263238"/>
<path id="Vector_56" d="M118.881 80.1792C116.153 74.8286 110.59 71.9776 106.818 67.513C104.774 65.0927 103.066 62.3357 100.572 60.3361C100.503 60.2866 100.413 60.4004 100.478 60.4549C102.552 62.2813 103.943 64.6274 105.561 66.825C107.265 68.9915 109.181 70.9814 111.283 72.7646C115.01 76.1304 119.465 80.1049 119.494 85.5545C119.494 88.0738 118.435 90.9991 116.03 92.1424C115.94 92.182 116.03 92.3355 116.109 92.281C117.05 91.7394 117.872 91.0115 118.523 90.1418C119.174 89.272 119.641 88.2787 119.895 87.2225C120.416 84.8291 120.056 82.3282 118.881 80.1792Z" fill="#263238"/>
<path id="Vector_57" d="M119.331 81.6591C119.198 79.5048 118.403 77.444 117.054 75.7591C115.688 74.101 113.757 73.0418 111.852 72.1261C109.649 71.0718 107.352 70.1067 105.774 68.1664C105.709 68.0823 105.595 68.1961 105.66 68.2753C108.179 71.4827 112.263 72.5666 115.287 75.1355C118.751 78.0756 119.444 82.9708 117.94 87.1087C116.968 89.6362 115.413 91.8985 113.401 93.7115C113.366 93.7412 113.401 93.7956 113.45 93.761C116.895 90.7318 119.697 86.4306 119.331 81.6591Z" fill="#263238"/>
<path id="Vector_58" d="M91.8305 105.912C97.0424 111.387 123.825 137.283 135.516 134.868C149.687 131.942 166.144 123.32 172.569 117.193C176.172 113.762 158.804 96.4041 155.181 99.0818C149.474 103.309 135.724 110.337 133.303 111.327C130.883 112.317 110.406 101.76 98.4679 97.6316C87.7173 93.8897 88.1628 102.057 91.8305 105.912Z" fill="#F4C2BA"/>
<path id="Vector_59" d="M182.364 109.407C179.221 113.599 169.436 119.653 166.525 120.207C163.615 120.761 152.756 104.467 153.731 101.571C154.706 98.676 166.387 85.3911 171.549 84.0597C176.712 82.7282 185.626 105.066 182.364 109.407Z" fill="#F4C3BA"/>
<path id="Vector_60" d="M155.31 98.9531C155.31 98.9531 157.166 92.3949 156.795 86.4058C156.468 81.3671 155.414 73.9228 158.116 73.6456C163.665 73.0764 166.288 91.6425 166.288 91.6425C166.288 91.6425 166.125 100.022 160.68 101.047C157.25 101.735 155.31 98.9531 155.31 98.9531Z" fill="#F4C3BA"/>
<path id="Vector_61" d="M164.001 87.7076C163.724 90.4695 167.139 89.2172 167.139 89.2172C167.139 89.2172 162.684 92.187 163.476 95.1568C164.268 98.0028 168.337 96.3397 168.634 96.2259C168.396 96.3892 164.352 99.2452 165.481 102.131C166.654 105.13 170.431 102.764 170.698 102.626C170.52 102.844 168.258 105.808 169.614 107.808C171.94 111.243 177.939 103.848 181.29 103.611C181.29 103.611 182.305 109.253 182.364 109.412C182.364 109.412 188.215 102.482 187.675 97.9632C187.606 97.3062 187.315 96.6925 186.849 96.2236C186.384 95.7546 185.773 95.4586 185.116 95.3844C185.116 95.3844 187.25 93.3551 186.438 91.0535C186.017 89.8706 183.75 89.4944 183.75 89.4944C183.75 89.4944 185.393 87.8016 184.542 85.797C183.864 84.1983 181.701 84.0696 181.701 84.0696C181.701 84.0696 182.518 81.7086 181.3 80.298C178.84 77.442 164.59 81.7927 164.001 87.7076Z" fill="#F4C3BA"/>
<path id="Vector_62" d="M181.36 83.9904C181.37 83.9904 181.38 83.9862 181.388 83.9788C181.395 83.9714 181.399 83.9613 181.399 83.9508C181.399 83.9403 181.395 83.9302 181.388 83.9228C181.38 83.9154 181.37 83.9112 181.36 83.9112C176.326 84.1983 170.881 86.0594 166.951 89.2618C166.823 89.3707 166.951 89.6231 167.1 89.534C171.777 87.0047 176.138 85.1387 181.36 83.9904Z" fill="#263238"/>
<path id="Vector_63" d="M183.815 89.4399C183.869 89.4399 183.849 89.336 183.815 89.336C178.627 89.6627 172.559 91.9247 168.471 96.1516C168.332 96.2952 168.352 96.5674 168.525 96.414C171.426 93.8105 179.108 90.4497 183.815 89.4399Z" fill="#263238"/>
<path id="Vector_64" d="M170.53 103.012C174.613 99.1115 179.538 96.9089 184.918 95.3795C184.988 95.3795 184.953 95.2607 184.889 95.2607C182.053 95.2953 178.721 96.6268 176.222 97.884C173.878 99.0108 171.869 100.729 170.391 102.868C170.317 102.952 170.426 103.096 170.53 103.012Z" fill="#263238"/>
<path id="Vector_65" d="M167.065 89.1925C166.912 89.3162 167.268 89.4053 167.115 89.534C166.481 90.0883 162.957 93.7362 163.823 95.3201C164.526 96.5922 166.719 96.5328 167.55 96.1813L169.649 95.2954L167.986 96.8545C167.244 97.543 166.619 98.347 166.135 99.2353C165.886 99.6342 165.724 100.081 165.661 100.547C165.598 101.013 165.635 101.487 165.768 101.938C165.897 102.352 166.164 102.711 166.524 102.954C166.884 103.196 167.315 103.31 167.748 103.274C168.719 103.169 169.648 102.818 170.446 102.255L172.698 100.77L171.05 102.913C170.593 103.504 170.213 104.151 169.921 104.838C169.618 105.479 169.511 106.196 169.614 106.897C169.673 107.211 169.818 107.502 170.033 107.737C170.248 107.972 170.525 108.143 170.832 108.229C171.549 108.319 172.276 108.204 172.93 107.897C174.35 107.248 175.717 106.49 177.019 105.63C177.692 105.219 178.37 104.809 179.068 104.427C179.744 104.005 180.501 103.73 181.29 103.621C180.529 103.811 179.811 104.147 179.177 104.611C178.519 105.036 177.88 105.497 177.242 105.962C175.97 106.928 174.611 107.775 173.183 108.491C172.416 108.898 171.547 109.07 170.683 108.986C170.219 108.887 169.795 108.655 169.461 108.318C169.126 107.982 168.898 107.555 168.802 107.09C168.652 106.223 168.763 105.331 169.119 104.526C169.432 103.755 169.845 103.028 170.347 102.363L170.96 103.012C170.027 103.693 168.932 104.12 167.783 104.249C167.143 104.297 166.507 104.122 165.981 103.754C165.478 103.38 165.098 102.862 164.892 102.269C164.723 101.699 164.676 101.099 164.756 100.51C164.835 99.9204 165.038 99.3543 165.353 98.8492C165.897 97.8781 166.599 97.0049 167.431 96.2655L167.867 96.9386C166.793 97.3544 164.348 97.686 163.016 95.8497C161.621 93.1819 166.174 89.7567 167.065 89.1925Z" fill="#263238"/>
<path id="Vector_66" d="M167.14 89.2172C166.574 89.3038 165.998 89.3038 165.432 89.2172C165.205 89.1892 164.989 89.101 164.807 88.9618C164.625 88.8226 164.484 88.6374 164.397 88.4253C164.276 87.9344 164.298 87.4189 164.462 86.9404C164.615 86.4009 164.808 85.8465 165.026 85.2773C164.552 85.6751 164.166 86.1673 163.893 86.7226C163.56 87.3274 163.48 88.0389 163.67 88.7024C163.809 89.0529 164.052 89.3519 164.368 89.5587C164.667 89.7379 165.009 89.832 165.358 89.831C166.002 89.8228 166.627 89.6076 167.14 89.2172Z" fill="#263238"/>
<path id="Vector_67" d="M151.028 100.888L171.148 123.627C171.148 123.627 141.282 138.248 131.551 136.001C121.82 133.754 101.73 118.608 92.9442 107.788C84.1586 96.9683 89.4795 93.959 101.72 98.0078C113.96 102.057 131.264 109.961 133.021 109.887C134.779 109.813 151.028 100.888 151.028 100.888Z" fill="#FFC727"/>
<path id="Vector_68" d="M171.148 123.627C171.148 123.627 141.282 138.243 131.551 136.001C125.493 134.61 115.425 128.21 106.565 120.959C106.528 120.937 106.493 120.91 106.461 120.88C101.126 116.505 96.2355 111.832 92.9391 107.768C90.0831 104.259 88.722 101.572 88.5933 99.6807C88.5613 99.3276 88.5864 98.9716 88.6675 98.6265C89.3506 95.6567 94.2458 95.528 101.715 97.9979C113.97 102.042 131.259 109.946 133.021 109.877C134.783 109.808 151.023 100.888 151.023 100.888L171.148 123.627Z" fill="#496CBF"/>
<path id="Vector_69" d="M116.737 121.375C117.113 121.246 117.518 121.223 117.905 121.311C118.117 121.39 118.3 121.531 118.431 121.715C118.561 121.9 118.633 122.119 118.638 122.345C118.634 122.495 118.669 122.644 118.74 122.776C118.81 122.909 118.913 123.021 119.039 123.102C119.177 123.194 119.338 123.247 119.504 123.256C119.692 123.291 119.875 123.31 120.063 123.36C119.684 123.494 119.274 123.509 118.885 123.404C118.68 123.317 118.505 123.17 118.383 122.984C118.261 122.797 118.196 122.578 118.197 122.355C118.193 122.206 118.151 122.06 118.076 121.931C118.001 121.802 117.895 121.695 117.767 121.618C117.617 121.529 117.446 121.481 117.272 121.479C117.109 121.444 116.92 121.424 116.737 121.375Z" fill="white"/>
<path id="Vector_70" d="M90.43 100.438C90.0524 100.569 89.6443 100.587 89.257 100.488C89.0912 100.42 88.9446 100.313 88.8298 100.176C88.715 100.039 88.6357 99.8755 88.5986 99.7005C88.5667 99.3474 88.5918 98.9914 88.6729 98.6463C88.879 98.8532 88.9977 99.1314 89.0045 99.4234C89.0024 99.5737 89.0385 99.722 89.1095 99.8545C89.1805 99.987 89.2841 100.099 89.4104 100.181C89.5482 100.27 89.7067 100.323 89.8707 100.334C90.0588 100.369 90.2419 100.389 90.43 100.438Z" fill="white"/>
<path id="Vector_71" d="M145.029 113.54C145.408 113.415 145.813 113.394 146.202 113.48C146.414 113.559 146.597 113.699 146.727 113.884C146.857 114.069 146.928 114.289 146.93 114.515C146.929 114.665 146.965 114.813 147.036 114.945C147.107 115.078 147.21 115.19 147.336 115.272C147.475 115.362 147.635 115.414 147.801 115.421C147.984 115.46 148.172 115.48 148.355 115.529C147.978 115.663 147.569 115.678 147.182 115.574C146.976 115.486 146.8 115.339 146.677 115.152C146.553 114.964 146.488 114.744 146.489 114.52C146.487 114.371 146.447 114.226 146.372 114.098C146.298 113.97 146.192 113.863 146.064 113.787C145.915 113.696 145.743 113.648 145.569 113.649C145.401 113.609 145.217 113.589 145.029 113.54Z" fill="white"/>
<path id="Vector_72" d="M164.59 121.806C164.967 121.68 165.371 121.66 165.758 121.746C165.97 121.824 166.153 121.964 166.284 122.148C166.415 122.331 166.487 122.55 166.491 122.776C166.487 122.926 166.522 123.075 166.593 123.209C166.663 123.342 166.766 123.456 166.892 123.538C167.031 123.628 167.192 123.68 167.357 123.686C167.545 123.721 167.728 123.746 167.916 123.795C167.537 123.925 167.127 123.94 166.738 123.84C166.532 123.752 166.357 123.605 166.235 123.417C166.112 123.229 166.048 123.01 166.05 122.786C166.046 122.636 166.005 122.491 165.929 122.362C165.854 122.233 165.748 122.125 165.62 122.048C165.469 121.961 165.299 121.915 165.125 121.915C164.981 121.875 164.793 121.855 164.59 121.806Z" fill="white"/>
<path id="Vector_73" d="M126.542 127.166C126.921 127.041 127.326 127.02 127.716 127.107C127.931 127.185 128.118 127.328 128.251 127.515C128.383 127.703 128.456 127.926 128.458 128.156C128.455 128.306 128.49 128.454 128.56 128.587C128.63 128.719 128.733 128.832 128.859 128.913C128.998 129.004 129.159 129.055 129.324 129.062C129.512 129.101 129.695 129.121 129.883 129.171C129.504 129.303 129.094 129.318 128.705 129.215C128.499 129.127 128.324 128.98 128.202 128.792C128.079 128.605 128.015 128.385 128.017 128.161C128.013 128.012 127.972 127.867 127.896 127.739C127.821 127.611 127.715 127.504 127.587 127.428C127.438 127.337 127.267 127.289 127.092 127.29C126.914 127.25 126.726 127.225 126.542 127.166Z" fill="white"/>
<path id="Vector_74" d="M105.081 99.9728C105.459 99.8476 105.864 99.8271 106.254 99.9134C106.465 99.9928 106.647 100.134 106.777 100.319C106.907 100.503 106.978 100.722 106.981 100.948C106.98 101.098 107.017 101.246 107.087 101.378C107.158 101.511 107.261 101.623 107.387 101.705C107.526 101.797 107.686 101.85 107.852 101.859C108.035 101.893 108.224 101.913 108.412 101.963C108.033 102.097 107.622 102.112 107.234 102.007C107.028 101.919 106.854 101.773 106.731 101.586C106.609 101.4 106.544 101.181 106.546 100.958C106.542 100.808 106.501 100.662 106.426 100.533C106.35 100.404 106.243 100.297 106.115 100.22C105.965 100.131 105.794 100.083 105.62 100.082C105.457 100.047 105.269 100.022 105.081 99.9728Z" fill="white"/>
<path id="Vector_75" d="M151.454 126.097C151.279 126.454 151.008 126.756 150.672 126.968C150.467 127.062 150.238 127.092 150.016 127.054C149.793 127.016 149.587 126.912 149.425 126.755C149.32 126.648 149.19 126.568 149.046 126.524C148.903 126.48 148.75 126.473 148.603 126.503C148.441 126.537 148.29 126.614 148.167 126.726C148.009 126.829 147.866 126.948 147.697 127.042C147.91 126.74 148.068 126.369 148.499 126.181C148.707 126.097 148.935 126.077 149.154 126.123C149.374 126.169 149.575 126.279 149.732 126.438C149.839 126.542 149.97 126.616 150.114 126.654C150.258 126.692 150.409 126.693 150.553 126.656C150.714 126.615 150.863 126.533 150.984 126.419C151.142 126.31 151.291 126.176 151.454 126.097Z" fill="white"/>
<path id="Vector_76" d="M127.933 116.772C127.758 117.13 127.485 117.432 127.146 117.643C126.942 117.736 126.714 117.766 126.492 117.728C126.271 117.69 126.066 117.586 125.904 117.43C125.799 117.323 125.669 117.243 125.525 117.199C125.382 117.155 125.229 117.148 125.082 117.178C124.92 117.212 124.77 117.289 124.647 117.4C124.488 117.504 124.34 117.623 124.177 117.717C124.389 117.415 124.548 117.044 124.973 116.856C125.181 116.772 125.409 116.752 125.629 116.798C125.848 116.844 126.049 116.953 126.206 117.113C126.314 117.216 126.447 117.29 126.591 117.328C126.736 117.366 126.887 117.367 127.032 117.331C127.194 117.289 127.342 117.208 127.463 117.094C127.621 117.004 127.765 116.891 127.933 116.772Z" fill="white"/>
<path id="Vector_77" d="M139.372 121.88C139.196 122.236 138.925 122.537 138.59 122.751C138.384 122.845 138.155 122.874 137.932 122.836C137.71 122.797 137.504 122.691 137.343 122.533C137.238 122.425 137.108 122.346 136.964 122.303C136.82 122.259 136.668 122.254 136.521 122.286C136.358 122.318 136.207 122.395 136.085 122.508C135.927 122.612 135.783 122.731 135.59 122.825C135.803 122.523 135.962 122.152 136.392 121.964C136.6 121.881 136.827 121.861 137.046 121.905C137.265 121.95 137.466 122.058 137.625 122.216C137.731 122.321 137.863 122.396 138.007 122.434C138.151 122.472 138.302 122.472 138.446 122.434C138.609 122.393 138.759 122.312 138.882 122.197C139.06 122.093 139.209 121.974 139.372 121.88Z" fill="white"/>
<path id="Vector_78" d="M154.166 105.066C153.988 105.422 153.716 105.724 153.379 105.937C153.174 106.031 152.945 106.061 152.723 106.023C152.5 105.985 152.295 105.881 152.132 105.724C152.027 105.616 151.897 105.537 151.754 105.492C151.61 105.448 151.458 105.441 151.31 105.472C151.149 105.508 150.999 105.585 150.875 105.695C150.721 105.798 150.573 105.917 150.38 106.011C150.598 105.709 150.751 105.338 151.182 105.15C151.39 105.066 151.618 105.046 151.837 105.092C152.056 105.138 152.257 105.248 152.414 105.407C152.522 105.51 152.653 105.584 152.797 105.622C152.941 105.66 153.092 105.661 153.236 105.625C153.408 105.586 153.568 105.505 153.701 105.388C153.855 105.279 153.998 105.165 154.166 105.066Z" fill="white"/>
<path id="Vector_79" d="M97.7157 103.903C97.8408 104.281 97.8613 104.687 97.7751 105.076C97.6956 105.287 97.5545 105.469 97.37 105.599C97.1855 105.729 96.9662 105.8 96.7406 105.803C96.5905 105.802 96.4425 105.839 96.3101 105.91C96.1778 105.981 96.0654 106.084 95.9833 106.209C95.8915 106.348 95.8386 106.509 95.8299 106.675C95.7952 106.858 95.7754 107.046 95.7259 107.234C95.5918 106.855 95.5763 106.444 95.6814 106.056C95.7691 105.851 95.9155 105.676 96.1022 105.553C96.2889 105.431 96.5075 105.366 96.7307 105.368C96.8799 105.364 97.0256 105.322 97.1544 105.247C97.2833 105.171 97.3912 105.065 97.4682 104.937C97.5572 104.787 97.605 104.617 97.6068 104.442C97.6415 104.264 97.6613 104.076 97.7157 103.903Z" fill="white"/>
<path id="Vector_80" d="M157.423 118.118C157.548 118.497 157.569 118.902 157.483 119.291C157.404 119.503 157.263 119.685 157.078 119.815C156.893 119.945 156.674 120.016 156.448 120.019C156.298 120.016 156.149 120.051 156.016 120.123C155.884 120.194 155.772 120.298 155.691 120.425C155.6 120.561 155.548 120.721 155.542 120.885C155.503 121.073 155.483 121.256 155.433 121.444C155.3 121.067 155.285 120.658 155.389 120.271C155.477 120.065 155.624 119.889 155.811 119.765C155.999 119.642 156.219 119.577 156.443 119.578C156.592 119.575 156.737 119.534 156.866 119.458C156.994 119.383 157.101 119.276 157.176 119.148C157.263 119.006 157.311 118.844 157.314 118.677C157.349 118.489 157.374 118.301 157.423 118.118Z" fill="white"/>
<path id="Vector_81" d="M140.659 130.428C140.784 130.806 140.804 131.212 140.718 131.601C140.64 131.813 140.499 131.996 140.314 132.126C140.129 132.256 139.909 132.326 139.684 132.329C139.533 132.327 139.385 132.364 139.253 132.435C139.121 132.506 139.008 132.609 138.926 132.734C138.836 132.873 138.785 133.034 138.778 133.2C138.738 133.383 138.718 133.571 138.669 133.759C138.537 133.38 138.521 132.969 138.624 132.581C138.712 132.375 138.86 132.2 139.047 132.077C139.235 131.955 139.455 131.891 139.679 131.893C139.827 131.889 139.972 131.847 140.1 131.772C140.228 131.697 140.335 131.59 140.411 131.462C140.502 131.313 140.55 131.142 140.55 130.967C140.589 130.804 140.609 130.631 140.659 130.428Z" fill="white"/>
<path id="Vector_82" d="M137.729 109.63C137.854 110.008 137.874 110.413 137.788 110.803C137.71 111.014 137.569 111.198 137.384 111.327C137.199 111.457 136.979 111.528 136.754 111.53C136.603 111.529 136.455 111.565 136.323 111.636C136.191 111.707 136.078 111.81 135.996 111.936C135.906 112.075 135.855 112.236 135.848 112.401C135.808 112.584 135.788 112.773 135.739 112.956C135.606 112.578 135.59 112.169 135.694 111.783C135.782 111.576 135.929 111.4 136.117 111.277C136.304 111.153 136.524 111.088 136.749 111.09C136.897 111.087 137.042 111.047 137.17 110.972C137.299 110.898 137.406 110.792 137.481 110.664C137.572 110.515 137.62 110.344 137.62 110.169C137.659 110.001 137.679 109.842 137.729 109.63Z" fill="white"/>
<path id="Vector_83" d="M118.376 107.966C118.503 108.345 118.523 108.75 118.435 109.139C118.357 109.351 118.217 109.533 118.033 109.663C117.849 109.793 117.63 109.864 117.405 109.867C117.255 109.866 117.106 109.902 116.973 109.973C116.84 110.044 116.726 110.147 116.643 110.273C116.553 110.412 116.502 110.573 116.495 110.738C116.46 110.921 116.435 111.109 116.386 111.293C116.256 110.914 116.241 110.506 116.341 110.12C116.43 109.913 116.577 109.738 116.764 109.614C116.952 109.491 117.171 109.426 117.396 109.427C117.545 109.425 117.691 109.385 117.82 109.31C117.949 109.235 118.057 109.129 118.133 109.001C118.22 108.851 118.266 108.68 118.267 108.506C118.306 108.357 118.326 108.155 118.376 107.966Z" fill="white"/>
<path id="Vector_84" d="M106.571 120.979C106.533 120.957 106.498 120.93 106.467 120.9C106.467 120.835 106.492 120.771 106.511 120.702C106.526 120.801 106.551 120.89 106.571 120.979Z" fill="white"/>
<path id="Vector_85" d="M104.65 112.268C104.83 111.912 105.101 111.611 105.437 111.397C105.643 111.304 105.872 111.275 106.094 111.314C106.317 111.353 106.522 111.457 106.684 111.614C106.849 111.78 107.072 111.875 107.306 111.88C107.539 111.885 107.766 111.798 107.937 111.639C108.095 111.535 108.244 111.421 108.432 111.322C108.214 111.624 108.06 111.995 107.63 112.184C107.422 112.267 107.195 112.287 106.976 112.242C106.757 112.197 106.556 112.089 106.397 111.931C106.29 111.827 106.157 111.752 106.013 111.714C105.868 111.676 105.716 111.676 105.571 111.713C105.409 111.753 105.26 111.835 105.14 111.951C104.962 112.055 104.818 112.174 104.65 112.268Z" fill="white"/>
<path id="Vector_86" d="M165.085 126.3C164.051 124.79 162.704 123.449 161.526 122.048C160.348 120.647 159.051 119.212 157.77 117.811C155.295 115.089 152.751 112.446 150.192 109.813C148.707 108.278 147.157 106.808 145.648 105.289C145.593 105.234 145.499 105.323 145.549 105.383C147.989 108.219 150.39 111.07 152.889 113.852C155.389 116.633 157.839 119.296 160.408 121.91C161.14 122.662 161.893 123.394 162.645 124.127C163.38 124.928 164.16 125.686 164.981 126.399C165.036 126.448 165.125 126.364 165.085 126.3Z" fill="#263238"/>
<path id="Vector_87" opacity="0.1" d="M142.273 134.907C137.927 136.046 134.071 136.595 131.557 136.021C125.498 134.63 115.431 128.23 106.571 120.979C106.533 120.957 106.498 120.93 106.467 120.9C101.131 116.524 96.2409 111.852 92.9444 107.788C90.0885 104.279 88.7273 101.591 88.5986 99.7005C88.5667 99.3474 88.5918 98.9914 88.6729 98.6463C88.9897 97.2802 90.2073 96.513 92.1376 96.3298L142.273 134.907Z" fill="black"/>
<path id="Vector_88" d="M111.738 135.12L116.425 161.68H60.2766C61.8753 135.714 76.942 107.313 83.5844 99.2204C86.9106 95.1667 93.4837 94.3005 98.468 97.6068C99.651 98.3889 113.426 118.712 114.554 121.677C116.801 127.522 111.738 135.12 111.738 135.12Z" fill="#496CBF"/>
<path id="Vector_89" d="M93.1174 115.287C93.496 115.162 93.9013 115.141 94.2905 115.228C94.5012 115.308 94.6831 115.449 94.8128 115.633C94.9425 115.818 95.014 116.037 95.0181 116.262C95.0154 116.496 95.1045 116.722 95.2664 116.892C95.4283 117.061 95.6501 117.16 95.8843 117.168C96.0724 117.207 96.2555 117.227 96.4436 117.277C96.0645 117.411 95.6537 117.426 95.2656 117.321C95.0603 117.234 94.8855 117.087 94.7631 116.9C94.6407 116.714 94.5762 116.495 94.5776 116.272C94.5742 116.123 94.5329 115.977 94.4576 115.848C94.3823 115.718 94.2754 115.611 94.1469 115.534C93.997 115.445 93.8263 115.398 93.652 115.396C93.4886 115.346 93.3154 115.322 93.1174 115.287Z" fill="white"/>
<path id="Vector_90" d="M96.7803 138.55C97.1588 138.425 97.5641 138.405 97.9533 138.491C98.1644 138.57 98.3467 138.711 98.4765 138.896C98.6063 139.08 98.6775 139.3 98.6809 139.525C98.6797 139.675 98.7162 139.823 98.7872 139.956C98.8581 140.088 98.9611 140.201 99.0868 140.283C99.2258 140.373 99.3865 140.424 99.5521 140.431C99.7352 140.471 99.9233 140.49 100.106 140.54C99.7289 140.673 99.3199 140.689 98.9334 140.585C98.7265 140.498 98.5505 140.351 98.4278 140.163C98.3052 139.975 98.2417 139.755 98.2454 139.53C98.2412 139.382 98.1995 139.237 98.1242 139.109C98.0489 138.981 97.9425 138.874 97.8147 138.798C97.6658 138.706 97.4944 138.658 97.3198 138.659C97.1366 138.644 96.9535 138.62 96.7803 138.55Z" fill="white"/>
<path id="Vector_91" d="M83.0054 123.038C83.383 122.909 83.789 122.887 84.1784 122.974C84.3892 123.054 84.5711 123.195 84.7008 123.379C84.8304 123.564 84.9019 123.783 84.906 124.008C84.9034 124.159 84.9394 124.307 85.0104 124.44C85.0814 124.572 85.1852 124.684 85.3119 124.765C85.4483 124.858 85.6076 124.911 85.7722 124.919C85.9603 124.954 86.1434 124.973 86.3315 125.023C85.954 125.156 85.545 125.172 85.1585 125.067C84.9523 124.98 84.7764 124.834 84.6531 124.648C84.5298 124.461 84.4645 124.242 84.4655 124.018C84.4626 123.869 84.4215 123.722 84.3462 123.593C84.2708 123.464 84.1636 123.357 84.0349 123.281C83.8923 123.196 83.7306 123.148 83.5647 123.142C83.3766 123.107 83.1935 123.088 83.0054 123.038Z" fill="white"/>
<path id="Vector_92" d="M75.5461 146.895C75.923 146.77 76.3267 146.75 76.7143 146.836C76.9265 146.914 77.11 147.054 77.24 147.239C77.3701 147.424 77.4405 147.644 77.4418 147.87C77.4406 148.021 77.4772 148.169 77.5481 148.301C77.619 148.433 77.722 148.546 77.8477 148.628C77.9867 148.718 78.1474 148.769 78.313 148.776C78.4961 148.816 78.6842 148.836 78.8723 148.885C78.4929 149.017 78.0826 149.033 77.6943 148.93C77.4882 148.842 77.3129 148.694 77.1905 148.507C77.068 148.319 77.0039 148.099 77.0063 147.875C77.0021 147.727 76.9604 147.582 76.8851 147.454C76.8098 147.326 76.7034 147.219 76.5757 147.143C76.4267 147.052 76.2554 147.004 76.0807 147.004C75.9174 146.965 75.7293 146.965 75.5461 146.895Z" fill="white"/>
<path id="Vector_93" d="M109.12 158.482C109.498 158.357 109.904 158.337 110.293 158.423C110.504 158.502 110.686 158.644 110.816 158.828C110.946 159.013 111.017 159.232 111.021 159.457C111.019 159.608 111.056 159.756 111.127 159.888C111.198 160.02 111.301 160.133 111.426 160.215C111.565 160.305 111.726 160.356 111.892 160.363C112.075 160.403 112.263 160.423 112.451 160.472C112.072 160.604 111.661 160.62 111.273 160.517C111.067 160.429 110.892 160.282 110.769 160.094C110.647 159.906 110.583 159.687 110.585 159.462C110.581 159.314 110.539 159.169 110.464 159.041C110.389 158.913 110.282 158.806 110.154 158.73C110.005 158.639 109.834 158.591 109.659 158.591C109.496 158.557 109.308 158.532 109.12 158.482Z" fill="white"/>
<path id="Vector_94" d="M63.2365 150.004C62.8571 150.136 62.4468 150.152 62.0585 150.048C61.9765 150.017 61.8998 149.974 61.8308 149.92C61.8556 149.756 61.8902 149.598 61.9249 149.425C61.9932 149.551 62.0919 149.658 62.2119 149.736C62.3509 149.827 62.5116 149.878 62.6772 149.885C62.8653 149.934 63.0484 149.934 63.2365 150.004Z" fill="white"/>
<path id="Vector_95" d="M87.1038 98.4582C87.4814 98.3289 87.8874 98.3067 88.2768 98.3938C88.4876 98.4739 88.6695 98.6152 88.7992 98.7996C88.9288 98.984 89.0003 99.2029 89.0044 99.4283C89.0008 99.5783 89.0358 99.7267 89.106 99.8593C89.1762 99.9919 89.2793 100.104 89.4053 100.186C89.5439 100.277 89.7046 100.33 89.8706 100.339C90.0587 100.374 90.2418 100.393 90.4299 100.443C90.0524 100.576 89.6434 100.592 89.2569 100.488C89.0503 100.401 88.8741 100.255 88.7507 100.068C88.6273 99.8815 88.5623 99.6621 88.5639 99.4382C88.561 99.2888 88.5199 99.1425 88.4445 99.0134C88.3692 98.8844 88.262 98.7767 88.1333 98.7007C87.9834 98.6118 87.8126 98.5639 87.6383 98.5621C87.475 98.5225 87.2869 98.5027 87.1038 98.4582Z" fill="white"/>
<path id="Vector_96" d="M107.06 132.116C106.884 132.472 106.614 132.773 106.278 132.987C106.073 133.081 105.844 133.11 105.621 133.071C105.398 133.033 105.193 132.927 105.031 132.769C104.927 132.661 104.796 132.582 104.652 132.539C104.509 132.495 104.356 132.489 104.209 132.522C104.046 132.554 103.896 132.631 103.774 132.744C103.616 132.848 103.472 132.967 103.304 133.061C103.517 132.759 103.675 132.388 104.106 132.2C104.313 132.117 104.541 132.096 104.76 132.141C104.979 132.186 105.18 132.294 105.338 132.452C105.444 132.557 105.576 132.631 105.72 132.67C105.864 132.708 106.016 132.708 106.16 132.67C106.322 132.63 106.47 132.548 106.59 132.432C106.749 132.309 106.897 132.19 107.06 132.116Z" fill="white"/>
<path id="Vector_97" d="M70.9728 124.662C70.7933 125.017 70.5215 125.318 70.1859 125.533C70.0457 125.595 69.8939 125.628 69.7404 125.628C69.5869 125.628 69.4351 125.595 69.2949 125.533C69.3494 125.399 69.3989 125.265 69.4583 125.132C69.6467 125.225 69.8616 125.252 70.0671 125.206C70.2298 125.162 70.3793 125.078 70.5026 124.963C70.661 124.869 70.8095 124.756 70.9728 124.662Z" fill="white"/>
<path id="Vector_98" d="M70.9728 140.684C70.7963 141.041 70.5238 141.343 70.1858 141.555C69.9814 141.648 69.7534 141.678 69.5318 141.64C69.3102 141.602 69.1052 141.498 68.9435 141.342C68.8387 141.234 68.7085 141.155 68.5649 141.111C68.4213 141.067 68.269 141.059 68.1218 141.089C67.9596 141.124 67.8093 141.201 67.6863 141.312C67.5279 141.416 67.3794 141.535 67.2161 141.629C67.4289 141.327 67.5873 140.956 68.013 140.768C68.2208 140.684 68.4488 140.664 68.6682 140.71C68.8876 140.755 69.0884 140.865 69.2454 141.025C69.3539 141.128 69.4864 141.201 69.6309 141.24C69.7753 141.278 69.927 141.279 70.072 141.243C70.2337 141.2 70.3819 141.116 70.5026 141C70.661 140.896 70.8045 140.783 70.9728 140.684Z" fill="white"/>
<path id="Vector_99" d="M86.5393 156.864C86.361 157.22 86.089 157.522 85.7523 157.735C85.5467 157.829 85.3175 157.858 85.0949 157.82C84.8722 157.781 84.6666 157.675 84.505 157.517C84.4005 157.409 84.2702 157.33 84.1264 157.287C83.9825 157.243 83.8301 157.238 83.6834 157.27C83.5207 157.303 83.3702 157.38 83.2478 157.492C83.0944 157.596 82.9459 157.715 82.7776 157.809C82.9954 157.507 83.1488 157.136 83.5794 156.948C83.787 156.865 84.0144 156.845 84.2335 156.89C84.4525 156.934 84.6536 157.042 84.8119 157.2C84.9186 157.304 85.0502 157.379 85.1942 157.417C85.3381 157.455 85.4894 157.456 85.6335 157.418C85.7965 157.377 85.9464 157.296 86.0691 157.181C86.2225 157.087 86.3859 156.968 86.5393 156.864Z" fill="white"/>
<path id="Vector_100" d="M87.7075 137.229C87.528 137.584 87.2561 137.885 86.9205 138.1C86.7155 138.193 86.4873 138.222 86.2657 138.183C86.044 138.144 85.8393 138.039 85.6781 137.882C85.512 137.718 85.2892 137.623 85.0554 137.617C84.8216 137.612 84.5946 137.696 84.4209 137.852C84.2625 137.961 84.114 138.075 83.9507 138.174C84.1635 137.872 84.317 137.501 84.7476 137.313C84.9547 137.227 85.1828 137.205 85.4024 137.25C85.6221 137.295 85.8232 137.405 85.98 137.565C86.0885 137.668 86.2211 137.742 86.3655 137.78C86.5099 137.818 86.6616 137.819 86.8066 137.783C86.9679 137.741 87.116 137.66 87.2372 137.545C87.3758 137.437 87.5392 137.323 87.7075 137.229Z" fill="white"/>
<path id="Vector_101" d="M100.903 153.548C100.722 153.902 100.451 154.203 100.116 154.419C99.9106 154.513 99.6814 154.542 99.4588 154.503C99.2361 154.464 99.0304 154.359 98.8689 154.201C98.7644 154.093 98.634 154.014 98.4902 153.97C98.3464 153.927 98.1939 153.921 98.0472 153.954C97.8842 153.986 97.7334 154.063 97.6117 154.176C97.4533 154.28 97.3097 154.394 97.1167 154.493C97.3295 154.191 97.4879 153.82 97.9185 153.632C98.1262 153.549 98.3536 153.528 98.5726 153.573C98.7917 153.618 98.9928 153.726 99.151 153.884C99.2574 153.988 99.3891 154.063 99.5331 154.102C99.6771 154.14 99.8285 154.14 99.9726 154.102C100.136 154.061 100.286 153.979 100.408 153.864C100.586 153.76 100.74 153.642 100.903 153.548Z" fill="white"/>
<path id="Vector_102" d="M97.7157 103.903C97.8408 104.281 97.8613 104.687 97.7751 105.076C97.6956 105.287 97.5545 105.469 97.37 105.599C97.1855 105.729 96.9662 105.8 96.7406 105.803C96.5905 105.802 96.4425 105.839 96.3101 105.91C96.1778 105.981 96.0654 106.084 95.9833 106.209C95.8915 106.348 95.8386 106.509 95.8299 106.675C95.7952 106.858 95.7754 107.046 95.7259 107.234C95.5918 106.855 95.5763 106.444 95.6814 106.056C95.7691 105.851 95.9155 105.676 96.1022 105.553C96.2889 105.431 96.5075 105.366 96.7307 105.368C96.8799 105.364 97.0256 105.322 97.1544 105.247C97.2833 105.171 97.3912 105.065 97.4682 104.937C97.5572 104.787 97.605 104.617 97.6068 104.442C97.6415 104.264 97.6613 104.076 97.7157 103.903Z" fill="white"/>
<path id="Vector_103" d="M108.659 145.43C108.789 145.808 108.811 146.214 108.724 146.603C108.644 146.814 108.502 146.996 108.318 147.126C108.134 147.255 107.915 147.327 107.689 147.331C107.539 147.329 107.391 147.366 107.259 147.437C107.126 147.507 107.014 147.611 106.932 147.737C106.84 147.875 106.787 148.036 106.779 148.202C106.744 148.385 106.724 148.573 106.675 148.756C106.542 148.379 106.526 147.97 106.63 147.583C106.717 147.377 106.862 147.201 107.049 147.077C107.236 146.954 107.456 146.889 107.679 146.89C107.829 146.888 107.975 146.848 108.104 146.774C108.233 146.699 108.341 146.593 108.417 146.465C108.506 146.315 108.554 146.144 108.556 145.97C108.57 145.801 108.59 145.618 108.659 145.43Z" fill="white"/>
<path id="Vector_104" d="M106.511 120.702C106.638 121.08 106.659 121.486 106.57 121.875C106.492 122.086 106.352 122.268 106.168 122.398C105.984 122.527 105.766 122.599 105.541 122.603C105.39 122.6 105.241 122.637 105.108 122.708C104.974 122.778 104.861 122.882 104.779 123.008C104.688 123.147 104.636 123.308 104.63 123.474C104.596 123.657 104.571 123.845 104.521 124.028C104.392 123.65 104.376 123.242 104.477 122.855C104.565 122.648 104.712 122.472 104.899 122.349C105.087 122.226 105.307 122.161 105.531 122.162C105.681 122.159 105.827 122.118 105.956 122.043C106.085 121.967 106.193 121.86 106.269 121.731C106.352 121.588 106.398 121.427 106.402 121.261C106.442 121.073 106.462 120.89 106.511 120.702Z" fill="white"/>
<path id="Vector_105" d="M95.2261 127.052C95.3528 127.43 95.3751 127.836 95.2904 128.225C95.2104 128.436 95.0691 128.618 94.8847 128.748C94.7003 128.877 94.4813 128.949 94.2559 128.953C94.0215 128.954 93.7963 129.045 93.6269 129.207C93.4574 129.369 93.3566 129.59 93.3452 129.824C93.3106 130.007 93.2858 130.195 93.2363 130.378C93.1049 130 93.091 129.591 93.1967 129.205C93.2831 128.999 93.4291 128.823 93.6159 128.699C93.8028 128.576 94.0221 128.511 94.246 128.512C94.3951 128.51 94.5412 128.47 94.6704 128.396C94.7995 128.321 94.9073 128.215 94.9835 128.087C95.0691 127.935 95.1167 127.766 95.1221 127.592C95.1568 127.423 95.1766 127.24 95.2261 127.052Z" fill="white"/>
<path id="Vector_106" d="M70.0868 154.033C70.2119 154.411 70.2324 154.817 70.1462 155.206C70.0673 155.417 69.9262 155.6 69.7416 155.73C69.557 155.86 69.3374 155.931 69.1117 155.933C68.9614 155.931 68.813 155.967 68.6805 156.038C68.5481 156.109 68.4358 156.213 68.3544 156.339C68.2641 156.476 68.2128 156.635 68.2059 156.8C68.1713 156.988 68.1465 157.176 68.097 157.359C67.9672 156.981 67.9517 156.573 68.0525 156.186C68.1403 155.979 68.2872 155.803 68.4748 155.68C68.6624 155.557 68.8823 155.492 69.1067 155.493C69.2562 155.49 69.4024 155.449 69.5315 155.373C69.6606 155.298 69.7682 155.191 69.8442 155.062C69.9274 154.919 69.9733 154.757 69.9779 154.592C70.0175 154.389 70.0521 154.221 70.0868 154.033Z" fill="white"/>
<path id="Vector_107" d="M78.1992 115.129C78.326 115.507 78.3482 115.912 78.2636 116.302C78.1835 116.512 78.0422 116.694 77.8578 116.824C77.6735 116.954 77.4545 117.025 77.2291 117.029C76.9947 117.028 76.7689 117.117 76.599 117.279C76.4292 117.44 76.3286 117.661 76.3184 117.895C76.2837 118.083 76.259 118.267 76.2095 118.455C76.078 118.077 76.0642 117.668 76.1699 117.282C76.2563 117.075 76.4022 116.899 76.5891 116.775C76.7759 116.652 76.9953 116.587 77.2192 116.589C77.3686 116.586 77.5149 116.545 77.644 116.469C77.773 116.394 77.8807 116.287 77.9567 116.158C78.0398 116.015 78.0858 115.853 78.0903 115.688C78.1299 115.5 78.1497 115.312 78.1992 115.129Z" fill="white"/>
<path id="Vector_108" d="M78.1991 131.408C78.3259 131.786 78.3481 132.191 78.2634 132.581C78.1834 132.792 78.0421 132.974 77.8577 133.103C77.6733 133.233 77.4543 133.304 77.229 133.309C76.9946 133.307 76.7688 133.396 76.5989 133.558C76.4291 133.72 76.3285 133.941 76.3182 134.175C76.2836 134.363 76.2588 134.546 76.2093 134.734C76.0787 134.354 76.0649 133.944 76.1697 133.556C76.2564 133.35 76.4025 133.174 76.5894 133.052C76.7763 132.929 76.9956 132.865 77.2191 132.868C77.3682 132.864 77.5139 132.822 77.6428 132.747C77.7716 132.672 77.8795 132.565 77.9566 132.437C78.0438 132.287 78.0899 132.116 78.0902 131.942C78.1298 131.779 78.1496 131.591 78.1991 131.408Z" fill="white"/>
<path id="Vector_109" d="M91.2862 145.43C91.4114 145.809 91.4319 146.214 91.3456 146.603C91.2667 146.815 91.1257 146.997 90.9411 147.127C90.7565 147.257 90.5369 147.328 90.3112 147.331C90.161 147.33 90.013 147.366 89.8807 147.437C89.7484 147.508 89.636 147.611 89.5539 147.737C89.4636 147.876 89.4123 148.036 89.4054 148.202C89.3658 148.385 89.346 148.573 89.2965 148.756C89.1634 148.379 89.1478 147.97 89.2519 147.583C89.3398 147.377 89.4867 147.201 89.6743 147.077C89.8619 146.954 90.0817 146.889 90.3062 146.89C90.4545 146.888 90.5998 146.848 90.7281 146.773C90.8563 146.699 90.9633 146.592 91.0387 146.465C91.1291 146.315 91.177 146.144 91.1773 145.97C91.212 145.801 91.2367 145.618 91.2862 145.43Z" fill="white"/>
<path id="Vector_110" d="M104.65 112.268C104.83 111.912 105.101 111.611 105.437 111.397C105.643 111.304 105.872 111.275 106.094 111.314C106.317 111.353 106.522 111.457 106.684 111.614C106.849 111.78 107.072 111.875 107.306 111.88C107.539 111.885 107.766 111.798 107.937 111.639C108.095 111.535 108.244 111.421 108.432 111.322C108.214 111.624 108.06 111.995 107.63 112.184C107.422 112.267 107.195 112.287 106.976 112.242C106.757 112.197 106.556 112.089 106.397 111.931C106.29 111.827 106.157 111.752 106.013 111.714C105.868 111.676 105.716 111.676 105.571 111.713C105.409 111.753 105.26 111.835 105.14 111.951C104.962 112.055 104.818 112.174 104.65 112.268Z" fill="white"/>
<path id="Vector_111" d="M84.6587 110.605C84.8368 110.248 85.1089 109.947 85.4457 109.733C85.6504 109.639 85.8789 109.61 86.1009 109.648C86.3228 109.687 86.5276 109.793 86.688 109.951C86.7926 110.059 86.9229 110.138 87.0667 110.182C87.2105 110.225 87.363 110.231 87.5097 110.199C87.6727 110.166 87.8235 110.089 87.9453 109.976C88.1036 109.872 88.2521 109.758 88.4155 109.659C88.2026 109.961 88.0442 110.332 87.6186 110.52C87.411 110.603 87.1836 110.624 86.9645 110.579C86.7455 110.534 86.5444 110.426 86.3861 110.268C86.2784 110.164 86.1459 110.09 86.0012 110.051C85.8565 110.013 85.7044 110.013 85.5595 110.05C85.3975 110.09 85.2488 110.172 85.1289 110.288C84.9705 110.392 84.827 110.511 84.6587 110.605Z" fill="white"/>
<path id="Vector_112" d="M80.7828 101.76C73.3188 107.922 46.5016 130.745 48.1152 138.847C49.7387 147.054 55.9505 153.696 60.7269 149.093C64.6866 145.316 82.1687 117.287 85.3414 109.793C88.3657 102.655 88.1182 95.7012 80.7828 101.76Z" fill="#DD6A57"/>
<path id="Vector_113" d="M47.4321 136.57C47.4321 142.253 51.2384 152.964 58.6282 150.969C63.4689 149.667 83.5447 116.574 86.7817 108.724C90.5286 99.6312 87.2767 96.0576 80.3472 101.418C73.4177 106.779 47.442 128.458 47.4321 136.57Z" fill="#496CBF"/>
<path id="Vector_114" d="M68.2801 112.777C67.9025 112.911 67.4935 112.926 67.107 112.822C67.048 112.798 66.9916 112.768 66.9387 112.733C67.0357 112.656 67.1282 112.573 67.2159 112.485L67.2604 112.52C67.398 112.61 67.5569 112.661 67.7208 112.669C67.9088 112.708 68.0969 112.733 68.2801 112.777Z" fill="white"/>
<path id="Vector_115" d="M59.3066 132.076C59.6852 131.951 60.0905 131.93 60.4797 132.017C60.6916 132.095 60.8746 132.236 61.0046 132.421C61.1345 132.605 61.2052 132.825 61.2073 133.051C61.2061 133.201 61.2426 133.349 61.3135 133.482C61.3845 133.614 61.4875 133.726 61.6132 133.808C61.7522 133.899 61.9129 133.95 62.0784 133.957C62.2616 133.997 62.4497 134.016 62.6328 134.066C62.2553 134.199 61.8463 134.214 61.4597 134.11C61.2532 134.023 61.0772 133.876 60.9539 133.688C60.8306 133.5 60.7655 133.281 60.7668 133.056C60.7645 132.908 60.7242 132.763 60.6496 132.634C60.5751 132.506 60.4689 132.399 60.3411 132.324C60.1918 132.233 60.0207 132.185 59.8462 132.185C59.6581 132.145 59.4947 132.116 59.3066 132.076Z" fill="white"/>
<path id="Vector_116" d="M61.6773 148.494C61.5684 148.613 61.4595 148.732 61.3506 148.841C61.3261 148.72 61.2769 148.606 61.2062 148.506C61.1355 148.405 61.0448 148.32 60.9398 148.256C60.7894 148.169 60.6187 148.123 60.4448 148.123C60.2617 148.088 60.0736 148.063 59.8855 148.014C60.2641 147.889 60.6693 147.869 61.0586 147.955C61.1927 147.998 61.3166 148.069 61.4229 148.161C61.5292 148.254 61.6157 148.367 61.6773 148.494Z" fill="white"/>
<path id="Vector_117" d="M70.9728 124.662C70.7948 125.018 70.5226 125.319 70.1858 125.533C69.9812 125.627 69.7526 125.657 69.5307 125.618C69.3087 125.579 69.1039 125.473 68.9435 125.315C68.839 125.207 68.7086 125.128 68.5648 125.084C68.421 125.041 68.2685 125.035 68.1218 125.067C67.9588 125.1 67.808 125.177 67.6863 125.29C67.5279 125.394 67.3794 125.508 67.2161 125.607C67.4289 125.305 67.5873 124.934 68.013 124.746C68.2206 124.663 68.448 124.642 68.667 124.687C68.8861 124.732 69.0872 124.84 69.2454 124.998C69.3531 125.102 69.4856 125.177 69.6303 125.215C69.775 125.253 69.9271 125.253 70.072 125.216C70.2341 125.176 70.3827 125.094 70.5026 124.978C70.661 124.874 70.8045 124.756 70.9728 124.662Z" fill="white"/>
<path id="Vector_118" d="M79.3178 102.913C79.443 103.29 79.4636 103.693 79.3772 104.081C79.3004 104.293 79.1606 104.476 78.9766 104.606C78.7925 104.736 78.5731 104.807 78.3477 104.809C78.1968 104.807 78.048 104.843 77.9148 104.914C77.7816 104.985 77.6684 105.088 77.5855 105.214C77.4952 105.353 77.4439 105.514 77.437 105.68C77.4023 105.868 77.3776 106.051 77.3281 106.239C77.1985 105.859 77.183 105.45 77.2835 105.061C77.3716 104.855 77.5187 104.68 77.7064 104.557C77.894 104.435 78.1138 104.371 78.3378 104.373C78.487 104.369 78.6327 104.327 78.7615 104.252C78.8904 104.177 78.9983 104.07 79.0753 103.942C79.1625 103.792 79.2086 103.621 79.2089 103.447C79.2485 103.284 79.2683 103.096 79.3178 102.913Z" fill="white"/>
<path id="Vector_119" d="M78.1992 115.129C78.326 115.507 78.3482 115.912 78.2636 116.302C78.1835 116.512 78.0422 116.694 77.8578 116.824C77.6735 116.954 77.4545 117.025 77.2291 117.029C76.9947 117.028 76.7689 117.117 76.599 117.279C76.4292 117.44 76.3286 117.661 76.3184 117.895C76.2837 118.083 76.259 118.267 76.2095 118.455C76.078 118.077 76.0642 117.668 76.1699 117.282C76.2563 117.075 76.4022 116.899 76.5891 116.775C76.7759 116.652 76.9953 116.587 77.2192 116.589C77.3686 116.586 77.5149 116.545 77.644 116.469C77.773 116.394 77.8807 116.287 77.9567 116.158C78.0398 116.015 78.0858 115.853 78.0903 115.688C78.1299 115.5 78.1497 115.312 78.1992 115.129Z" fill="white"/>
<path id="Vector_120" d="M54.7478 141.169C54.8729 141.547 54.8934 141.952 54.8072 142.342C54.7292 142.553 54.589 142.735 54.4053 142.865C54.2215 142.995 54.0027 143.066 53.7776 143.069C53.6268 143.068 53.4779 143.104 53.3447 143.175C53.2115 143.246 53.0983 143.349 53.0154 143.475C52.9251 143.614 52.8739 143.775 52.8669 143.94C52.8323 144.124 52.8075 144.312 52.758 144.5C52.6284 144.12 52.6129 143.71 52.7135 143.322C52.8015 143.116 52.9487 142.94 53.1363 142.818C53.324 142.695 53.5437 142.631 53.7677 142.634C53.9169 142.629 54.0626 142.588 54.1914 142.513C54.3203 142.437 54.4282 142.331 54.5052 142.203C54.5925 142.053 54.6386 141.882 54.6389 141.708C54.6785 141.545 54.7082 141.357 54.7478 141.169Z" fill="white"/>
<path id="Vector_121" d="M86.3464 109.724C86.2919 109.847 86.2276 109.981 86.1632 110.115C85.9762 110.021 85.7619 109.999 85.5594 110.05C85.3973 110.09 85.2487 110.172 85.1288 110.288C84.9704 110.392 84.8268 110.511 84.6338 110.605C84.8565 110.298 85.0001 109.941 85.4208 109.733C85.5647 109.663 85.7224 109.626 85.8825 109.624C86.0425 109.623 86.201 109.656 86.3464 109.724Z" fill="white"/>
<path id="Vector_122" d="M82.0056 120.172C81.3374 121.103 80.5999 121.984 79.8872 122.88L79.3922 123.523C79.8377 122.669 80.2733 121.807 80.6989 120.939C81.3495 119.696 81.9327 118.419 82.4461 117.113C82.4808 117.029 82.3521 116.99 82.3076 117.059C81.6394 118.108 81.1048 119.227 80.4712 120.296C79.8377 121.365 79.2289 122.449 78.625 123.533C77.4074 125.696 76.1502 127.849 74.8683 129.968C72.2895 134.204 69.5424 138.347 66.7014 142.416C65.9045 143.554 65.1175 144.703 64.281 145.816C63.4445 146.93 62.6575 148.138 61.8062 149.256C61.7765 149.296 61.8309 149.35 61.8656 149.311C62.6674 148.321 63.494 147.395 64.3107 146.44C65.1274 145.485 65.8203 144.49 66.5875 143.5C68.1169 141.52 69.5573 139.501 70.9729 137.446C73.7948 133.312 76.4066 129.039 78.7983 124.642L78.9715 124.305C79.3774 123.875 79.7733 123.429 80.1495 122.964C80.8573 122.083 81.4711 121.137 82.0898 120.192C82.1096 120.167 82.0353 120.128 82.0056 120.172Z" fill="#263238"/>
<path id="Vector_123" d="M97.4336 97.5771C97.4336 97.5771 99.0719 104.289 97.1168 105.214C93.4689 106.942 86.9502 101.576 86.5246 100.616C86.4206 100.369 85.8762 93.9194 85.4703 88.9103C85.203 85.6832 84.9753 83.05 84.9753 83.05L97.7702 88.1233L97.4831 96.9436L97.4336 97.5771Z" fill="#F4C3BA"/>
<path id="Vector_124" d="M97.7703 88.1233L97.4832 96.9436C95.033 96.5214 92.6991 95.5879 90.6336 94.2038C88.5681 92.8197 86.8173 91.016 85.4952 88.9103C85.2279 85.6832 85.0002 83.05 85.0002 83.05L86.599 83.6241L97.7703 88.1233Z" fill="#263238"/>
<path id="Vector_125" d="M100.116 78.0954C100.309 81.7037 103.032 84.4853 106.195 84.3121C109.357 84.1389 111.763 81.08 111.57 77.4767C111.377 73.8733 108.65 71.0867 105.487 71.2599C102.324 71.4332 99.9184 74.492 100.116 78.0954Z" fill="#455A64"/>
<path id="Vector_126" d="M98.265 78.427C98.4828 82.4362 101.512 85.5297 105.031 85.3565C108.55 85.1832 111.223 81.7581 111.01 77.7489C110.798 73.7397 107.763 70.6412 104.244 70.8194C100.725 70.9976 98.0571 74.4128 98.265 78.427Z" fill="#C7C7C7"/>
<path id="Vector_127" d="M109.016 75.4721C110.208 90.9149 101.096 93.3749 97.765 93.6273C94.7408 93.86 84.401 94.2609 81.6292 79.0209C78.8574 63.781 85.6483 58.3463 92.5184 57.4504C99.3885 56.5545 107.818 60.0242 109.016 75.4721Z" fill="#F4C3BA"/>
<path id="Vector_128" d="M104.205 72.7201C103.851 72.6751 103.499 72.6123 103.151 72.532C102.771 72.5154 102.408 72.3745 102.116 72.1311C102.041 72.0347 102.001 71.9163 102.001 71.7945C102.001 71.6726 102.041 71.5542 102.116 71.4579C102.286 71.2841 102.5 71.1593 102.735 71.0966C102.971 71.0339 103.218 71.0356 103.453 71.1015C103.949 71.1593 104.405 71.3992 104.734 71.7747C104.805 71.8661 104.847 71.9762 104.856 72.0914C104.864 72.2065 104.838 72.3216 104.782 72.4223C104.726 72.5231 104.641 72.605 104.538 72.6579C104.436 72.7109 104.32 72.7325 104.205 72.7201Z" fill="#263238"/>
<path id="Vector_129" d="M93.6076 73.5466C93.957 73.47 94.3022 73.3759 94.6421 73.2645C95.0171 73.2115 95.3646 73.0377 95.632 72.7696C95.7008 72.6697 95.7342 72.5497 95.727 72.4286C95.7199 72.3076 95.6725 72.1924 95.5924 72.1013C95.4079 71.943 95.1843 71.837 94.9449 71.7944C94.7056 71.7517 94.4591 71.774 94.2313 71.8588C93.7424 71.9592 93.3083 72.238 93.0137 72.6409C92.9498 72.7369 92.9156 72.8497 92.9153 72.965C92.9149 73.0804 92.9485 73.1933 93.0117 73.2898C93.075 73.3862 93.1652 73.462 93.2711 73.5077C93.377 73.5533 93.4941 73.5669 93.6076 73.5466Z" fill="#263238"/>
<path id="Vector_130" d="M96.2853 77.3084C96.2853 77.2688 96.2111 77.3678 96.216 77.4074C96.3397 78.4567 96.3101 79.6793 95.3894 80.1099C95.3597 80.1099 95.3894 80.1742 95.3894 80.1693C96.5476 79.902 96.5724 78.2785 96.2853 77.3084Z" fill="#263238"/>
<path id="Vector_131" d="M95.2509 76.2937C93.5482 76.2937 93.7165 79.7139 95.2954 79.6941C96.8744 79.6743 96.6764 76.2739 95.2509 76.2937Z" fill="#263238"/>
<path id="Vector_132" d="M94.5925 76.5065C94.3054 76.7144 94.0282 77.0658 93.6719 77.1203C93.3155 77.1747 92.9294 76.8431 92.6423 76.5115C92.6126 76.4768 92.5879 76.5115 92.5879 76.556C92.5879 77.2044 92.8948 77.8627 93.5778 77.9271C94.2609 77.9914 94.6469 77.3826 94.7756 76.7194C94.8004 76.5956 94.7063 76.4224 94.5925 76.5065Z" fill="#263238"/>
<path id="Vector_133" d="M102.428 76.6204C102.428 76.5758 102.512 76.6649 102.512 76.7095C102.512 77.7637 102.71 78.9715 103.68 79.2783C103.71 79.2783 103.71 79.3427 103.68 79.3377C102.502 79.2239 102.269 77.6202 102.428 76.6204Z" fill="#263238"/>
<path id="Vector_134" d="M103.324 75.477C105.012 75.279 105.304 78.6745 103.72 78.8576C102.136 79.0408 101.908 75.6453 103.324 75.477Z" fill="#263238"/>
<path id="Vector_135" d="M104.046 75.6453C104.328 75.8037 104.62 76.1106 104.942 76.1056C105.264 76.1007 105.561 75.7096 105.774 75.3384C105.774 75.2988 105.823 75.3384 105.828 75.3731C105.897 76.0165 105.739 76.7095 105.125 76.8877C104.511 77.0658 104.101 76.5214 103.898 75.8977C103.858 75.769 103.932 75.5809 104.046 75.6453Z" fill="#263238"/>
<path id="Vector_136" d="M97.2455 85.4703C97.498 85.7178 97.7405 86.0544 98.1365 86.0841C98.5287 86.0744 98.9147 85.9833 99.2699 85.8168C99.2771 85.8109 99.2864 85.8081 99.2957 85.809C99.305 85.81 99.3135 85.8145 99.3194 85.8218C99.3253 85.829 99.3281 85.8382 99.3272 85.8475C99.3263 85.8568 99.3217 85.8653 99.3145 85.8713C99.1645 86.0789 98.961 86.242 98.7256 86.3431C98.4903 86.4442 98.2319 86.4796 97.9781 86.4454C97.7625 86.3926 97.5678 86.2761 97.4195 86.111C97.2711 85.9458 97.176 85.7398 97.1465 85.5198C97.1267 85.4555 97.2109 85.4357 97.2455 85.4703Z" fill="#263238"/>
<path id="Vector_137" d="M101.413 81.3968C101.413 81.3968 101.73 82.9559 101.774 83.6984C101.774 83.7676 101.601 83.8122 101.349 83.8419C101.349 83.8419 101.349 83.8419 101.319 83.8419C100.689 83.998 100.029 83.977 99.4106 83.7814C98.7922 83.5857 98.2399 83.223 97.8147 82.7332C97.7602 82.6639 97.8493 82.5847 97.9186 82.6243C98.9044 83.2123 100.053 83.4674 101.195 83.3519C101.235 83.144 100.572 80.6989 100.7 80.684C101.279 80.7001 101.854 80.7934 102.408 80.9612C101.854 77.6944 100.775 74.5267 100.265 71.2847C100.263 71.2614 100.27 71.2384 100.283 71.2193C100.296 71.2001 100.316 71.186 100.338 71.1792C100.36 71.1723 100.384 71.1731 100.406 71.1815C100.428 71.1899 100.446 71.2053 100.458 71.2253C101.819 74.4475 102.547 78.1894 103.21 81.5502C103.279 81.966 101.73 81.5057 101.413 81.3968Z" fill="#263238"/>
<path id="Vector_138" d="M100.834 83.4707C100.492 84.0453 100.008 84.5224 99.4285 84.8566C99.1066 85.0264 98.74 85.0921 98.3791 85.0447C97.5872 84.9358 97.4882 84.2379 97.5575 83.6192C97.5965 83.291 97.6746 82.9686 97.7901 82.6589C98.6917 83.2486 99.7587 83.5331 100.834 83.4707Z" fill="#263238"/>
<path id="Vector_139" d="M99.4285 84.8566C99.1066 85.0264 98.74 85.0921 98.3791 85.0447C97.5872 84.9358 97.4882 84.2379 97.5575 83.6192C98.3841 83.6093 99.2552 84.0646 99.4285 84.8566Z" fill="#F392B9"/>
<path id="Vector_140" d="M81.8572 77.6351C83.545 77.6351 88.1581 73.22 88.7075 65.1075C88.7075 65.1075 87.7176 72.3587 87.1087 73.3982C86.4999 74.4376 89.6875 70.9233 90.2221 64.3799C90.2221 64.3799 93.7165 67.1814 96.7605 68.206C99.8046 69.2306 101.71 69.2999 101.938 69.087C102.166 68.8742 97.6911 67.2111 96.5329 65.7262C96.5329 65.7262 104.566 69.973 108.343 70.4531C108.778 70.5076 107.773 63.786 102.106 59.658C96.4388 55.53 88.9302 56.9258 86.3119 59.2076C86.3119 59.2076 83.3421 59.4748 79.9516 63.6622C76.5611 67.8496 80.0407 77.6697 81.8572 77.6351Z" fill="#263238"/>
<path id="Vector_141" d="M84.1784 80.0208C84.1784 80.0208 80.8423 75.1503 78.6348 76.3382C76.4272 77.5262 78.907 84.5546 81.4759 85.5396C81.7966 85.6879 82.1439 85.7699 82.4971 85.7806C82.8502 85.7914 83.2019 85.7307 83.531 85.6022C83.8601 85.4737 84.1599 85.28 84.4123 85.0328C84.6648 84.7856 84.8646 84.49 85 84.1636L84.1784 80.0208Z" fill="#DD6A57"/>
<path id="Vector_142" d="M79.397 78.3379C79.3906 78.3405 79.3851 78.3449 79.3812 78.3506C79.3773 78.3564 79.3752 78.3631 79.3752 78.3701C79.3752 78.377 79.3773 78.3838 79.3812 78.3895C79.3851 78.3952 79.3906 78.3997 79.397 78.4022C81.1987 79.1546 82.1342 80.8375 82.7826 82.5797C82.253 81.9066 81.5204 81.5304 80.6196 82.164C80.575 82.1986 80.6196 82.2729 80.6691 82.258C80.9874 82.1612 81.3279 82.1649 81.6441 82.2685C81.9602 82.3721 82.2368 82.5707 82.4361 82.8371C82.767 83.2868 83.0475 83.7715 83.2726 84.2824C83.3567 84.4458 83.6488 84.3616 83.5894 84.1735V84.1339C83.629 81.8274 81.8669 78.5903 79.397 78.3379Z" fill="#263238"/>
<path id="Vector_143" d="M82.9212 84.8665C82.9182 84.9743 82.8832 85.0788 82.8207 85.1667C82.7582 85.2547 82.671 85.322 82.5702 85.3603C82.4693 85.3986 82.3594 85.406 82.2543 85.3817C82.1492 85.3574 82.0537 85.3025 81.9799 85.2238C81.9061 85.1451 81.8573 85.0463 81.8398 84.9398C81.8222 84.8334 81.8367 84.7242 81.8813 84.626C81.926 84.5278 81.9988 84.445 82.0905 84.3883C82.1822 84.3315 82.2888 84.3033 82.3966 84.3072C82.5401 84.3123 82.6758 84.374 82.7741 84.4788C82.8723 84.5835 82.9252 84.7229 82.9212 84.8665Z" fill="white"/>
<path id="Vector_144" d="M81.4363 83.8765C81.4344 83.9214 81.4237 83.9654 81.4047 84.0062C81.3858 84.0469 81.359 84.0834 81.3259 84.1138C81.2928 84.1441 81.254 84.1676 81.2118 84.183C81.1696 84.1983 81.1248 84.2052 81.0799 84.2032C81.0353 84.2019 80.9914 84.1918 80.9507 84.1734C80.91 84.155 80.8734 84.1286 80.843 84.0959C80.8126 84.0632 80.789 84.0248 80.7736 83.9829C80.7582 83.941 80.7513 83.8964 80.7533 83.8518C80.7545 83.8069 80.7647 83.7628 80.783 83.7218C80.8014 83.6809 80.8276 83.644 80.8603 83.6132C80.8929 83.5824 80.9313 83.5583 80.9732 83.5423C81.0152 83.5264 81.0598 83.5188 81.1047 83.5202C81.1953 83.5253 81.2804 83.5652 81.3422 83.6316C81.404 83.6981 81.4377 83.7858 81.4363 83.8765Z" fill="white"/>
<path id="Vector_145" d="M78.7883 79.407L77.7241 79.6298C77.6965 79.6355 77.668 79.6357 77.6403 79.6304C77.6126 79.625 77.5862 79.6142 77.5627 79.5985C77.5392 79.5828 77.5191 79.5627 77.5034 79.5391C77.4878 79.5156 77.477 79.4892 77.4717 79.4615C77.46 79.4063 77.4706 79.3488 77.5012 79.3015C77.5318 79.2542 77.58 79.2209 77.6351 79.209L78.6992 78.9863C78.7269 78.9806 78.7554 78.9804 78.7831 78.9857C78.8108 78.9911 78.8372 79.0019 78.8607 79.0176C78.8842 79.0332 78.9043 79.0534 78.9199 79.077C78.9356 79.1005 78.9463 79.1269 78.9517 79.1546C78.9634 79.2097 78.9528 79.2673 78.9222 79.3146C78.8916 79.3619 78.8434 79.3952 78.7883 79.407Z" fill="#FFC727"/>
<path id="Vector_146" d="M78.6696 78.724L77.5856 78.7883C77.5572 78.7903 77.5288 78.7866 77.5019 78.7775C77.4749 78.7683 77.4502 78.7538 77.4289 78.7349C77.4077 78.716 77.3905 78.693 77.3783 78.6673C77.3661 78.6417 77.3592 78.6138 77.3579 78.5854C77.3552 78.5284 77.3749 78.4727 77.4129 78.4301C77.4508 78.3875 77.504 78.3615 77.5609 78.3577L78.6399 78.2934C78.6969 78.2892 78.7532 78.3077 78.7967 78.3447C78.8402 78.3818 78.8675 78.4344 78.8725 78.4913C78.8753 78.5488 78.8557 78.6052 78.8179 78.6485C78.78 78.6919 78.7269 78.7189 78.6696 78.724Z" fill="#FFC727"/>
<path id="Vector_147" d="M80.9758 76.3036C80.9758 76.3036 79.6691 68.5129 81.5351 63.9295C83.6139 58.8611 93.538 54.6341 101.304 59.0888C101.304 59.0888 89.504 56.7426 84.6732 63.9691C82.6389 67.0131 83.6139 76.2244 83.6139 76.2244L80.9758 76.3036Z" fill="#C7C7C7"/>
<path id="Vector_148" d="M83.1638 87.4555C86.6664 87.0713 89.1509 83.5238 88.713 79.5321C88.2751 75.5404 85.0807 72.6159 81.5781 73.0001C78.0755 73.3844 75.591 76.9318 76.0289 80.9235C76.4668 84.9152 79.6612 87.8397 83.1638 87.4555Z" fill="#C7C7C7"/>
<path id="Vector_149" d="M86.8415 79.511C87.2374 83.0995 85.0051 86.287 81.8572 86.6335C78.7092 86.98 75.8335 84.3517 75.4226 80.7632C75.0118 77.1747 77.2639 73.9822 80.4119 73.6407C83.5598 73.2992 86.4504 75.9225 86.8415 79.511Z" fill="#455A64"/>
<path id="Vector_150" d="M95.226 90.0586L90.0636 89.138L85.1931 85.3317L85.7821 84.5794L90.4645 88.2421L95.3894 89.1182L95.226 90.0586Z" fill="#C7C7C7"/>
<path id="Vector_151" d="M94.5479 89.43C94.6865 87.9452 98.6313 87.564 98.4234 89.7914C98.2156 92.0187 94.4093 90.905 94.5479 89.43Z" fill="#37474F"/>
<path id="Vector_152" d="M97.4731 97.3841L96.1714 104.611L86.1335 97.8791L84.3467 101.077C84.3467 101.077 95.2359 112.812 95.1517 112.193L96.7158 105.883L101.512 109.06L99.1114 99.0818L97.4731 97.3841Z" fill="white"/>
<path id="Vector_153" d="M61.3903 148.365C56.797 153.973 49.3231 147.568 48.4717 142.579C46.4671 130.863 49.0459 109.377 52.4612 99.1957C53.56 95.919 75.3186 102.165 75.373 105.853C75.4275 109.724 70.7055 136.986 61.3903 148.365Z" fill="#F4C2BA"/>
<path id="Vector_154" d="M51.8772 105.086C51.8772 105.086 52.2039 94.3302 56.0299 87.1631C58.673 82.2135 65.6273 72.0667 82.3818 71.3243C86.3415 71.156 92.1375 73.7298 85.7476 76.368C81.2087 78.2389 77.7687 78.0558 75.3236 79.6248C75.3236 79.6248 82.2927 83.7726 82.3076 87.7571C82.3198 91.244 82.0849 94.7273 81.6047 98.181C80.9464 98.2387 80.2851 98.2536 79.6249 98.2256C79.6249 98.2256 79.5259 101.958 75.3583 105.828L51.8772 105.086Z" fill="#F4C3BA"/>
<path id="Vector_155" d="M59.3066 82.8371C62.0586 81.7927 67.9289 79.6743 73.3339 79.6149C79.3378 79.5456 90.92 81.0305 90.9249 85.4604C90.9249 88.7123 86.4703 88.5341 86.4703 88.5341C86.4703 88.5341 91.1279 90.1576 90.4894 93.0928C89.9053 95.7705 86.4554 95.424 86.4554 95.424C86.4554 95.424 89.1134 96.9089 88.0541 99.3837C86.7821 102.354 81.4216 98.7848 77.5362 100.681C76.6551 101.086 59.3066 82.8371 59.3066 82.8371Z" fill="#F4C3BA"/>
<path id="Vector_156" d="M72.3489 85.9702C75.1009 85.4109 81.6691 85.7426 86.396 88.4451C86.5049 88.5045 86.5148 88.6183 86.396 88.5836C81.8305 87.1706 77.1102 86.318 72.339 86.0445C72.3192 86.0247 72.3192 85.9752 72.3489 85.9702Z" fill="#263238"/>
<path id="Vector_157" d="M72.5964 92.0236C75.0168 91.7861 81.7731 92.4295 86.4554 95.3102C86.5594 95.3745 86.5643 95.4933 86.4554 95.4537C81.9779 93.8093 77.3286 92.6769 72.5964 92.0781C72.5911 92.0758 72.5866 92.072 72.5835 92.0671C72.5803 92.0623 72.5786 92.0566 72.5786 92.0509C72.5786 92.0451 72.5803 92.0394 72.5835 92.0346C72.5866 92.0298 72.5911 92.026 72.5964 92.0236Z" fill="#263238"/>
<path id="Vector_158" d="M90.4051 83.5301C89.7517 82.8074 88.8261 82.5401 88.0144 82.0452C87.9699 82.0204 87.9303 82.0947 87.9748 82.1145C89.4053 82.7134 90.905 84.129 90.6674 85.8069C90.3803 87.8264 87.96 88.3411 86.282 88.3857C86.1979 88.3857 86.2375 88.4797 86.3216 88.4946C88.1876 88.8212 90.8209 88.1728 91.1673 85.9752C91.2333 85.5365 91.199 85.0886 91.067 84.6651C90.935 84.2416 90.7087 83.8535 90.4051 83.5301Z" fill="#263238"/>
<path id="Vector_159" d="M86.0495 88.3213C86.005 88.3213 85.9703 88.3708 86.0149 88.3906C88.5986 89.3805 90.1924 91.1773 90.321 92.1969C90.4136 92.6905 90.3538 93.2006 90.1496 93.6595C89.9454 94.1183 89.6064 94.5041 89.1777 94.7657C88.2805 95.26 87.2385 95.4246 86.2326 95.231C86.1485 95.231 86.1188 95.3399 86.198 95.3547C87.4107 95.5775 89.7419 95.8497 90.5834 93.8946C91.2862 92.2612 90.4992 89.5488 86.0495 88.3213Z" fill="#263238"/>
<path id="Vector_160" d="M87.9552 96.5773C87.4397 95.8546 86.6919 95.3305 85.8367 95.0924C85.7971 95.0924 85.7674 95.1469 85.8367 95.1617C87.3216 95.7606 88.5937 97.5375 88.1185 99.1858C88.0888 99.2897 88.2423 99.3194 88.2769 99.2254C88.4301 98.7889 88.4807 98.323 88.4249 97.8638C88.3691 97.4046 88.2084 96.9644 87.9552 96.5773Z" fill="#263238"/>
<path id="Vector_161" d="M88.7668 73.6556C88.648 72.9131 87.7125 72.1707 85.9158 71.8341C87.4007 72.24 88.4846 73.0418 88.4747 73.7644C88.4648 74.4871 87.9303 75.2493 86.3563 76.0957C86.3117 76.0957 86.3563 76.1403 86.3909 76.1205C87.3215 75.6899 88.9746 74.987 88.7668 73.6556Z" fill="#263238"/>
<path id="Vector_162" d="M50.7484 100.997L77.6744 110.065C77.6744 110.065 67.8643 140.283 63.2314 146.772C58.5986 153.261 52.1739 152.092 48.4666 144.044C44.7594 135.996 50.7484 100.997 50.7484 100.997Z" fill="#496CBF"/>
<path id="Vector_163" d="M64.9539 110.788C65.3324 110.663 65.7377 110.642 66.1269 110.728C66.338 110.808 66.5203 110.949 66.6501 111.133C66.7799 111.318 66.8511 111.537 66.8545 111.763C66.8533 111.913 66.8898 112.061 66.9608 112.193C67.0317 112.326 67.1347 112.438 67.2604 112.52C67.3994 112.61 67.5601 112.662 67.7257 112.669C67.9088 112.708 68.0969 112.728 68.28 112.777C67.9025 112.911 67.4935 112.926 67.107 112.822C66.9004 112.734 66.7244 112.587 66.6011 112.4C66.4778 112.212 66.4127 111.992 66.414 111.768C66.4117 111.619 66.3714 111.474 66.2968 111.346C66.2223 111.218 66.1161 111.111 65.9883 111.035C65.8384 110.946 65.6677 110.898 65.4934 110.897C65.3251 110.862 65.1419 110.832 64.9539 110.788Z" fill="white"/>
<path id="Vector_164" d="M59.3066 132.076C59.6852 131.951 60.0905 131.93 60.4797 132.017C60.6916 132.095 60.8746 132.236 61.0046 132.421C61.1345 132.605 61.2052 132.825 61.2073 133.051C61.2061 133.201 61.2426 133.349 61.3135 133.482C61.3845 133.614 61.4875 133.726 61.6132 133.808C61.7522 133.899 61.9129 133.95 62.0784 133.957C62.2616 133.997 62.4497 134.016 62.6328 134.066C62.2553 134.199 61.8463 134.214 61.4597 134.11C61.2532 134.023 61.0772 133.876 60.9539 133.688C60.8306 133.5 60.7655 133.281 60.7668 133.056C60.7645 132.908 60.7242 132.763 60.6496 132.634C60.5751 132.506 60.4689 132.399 60.3411 132.324C60.1918 132.233 60.0207 132.185 59.8462 132.185C59.6581 132.145 59.4947 132.116 59.3066 132.076Z" fill="white"/>
<path id="Vector_165" d="M61.712 148.568C61.5932 148.687 61.4744 148.796 61.3556 148.9C61.3383 148.768 61.2915 148.642 61.2187 148.53C61.1458 148.419 61.0488 148.325 60.9349 148.256C60.7852 148.168 60.614 148.121 60.4399 148.123C60.2568 148.088 60.0687 148.063 59.8806 148.014C60.2592 147.889 60.6644 147.869 61.0537 147.955C61.2016 148.003 61.3372 148.082 61.4509 148.188C61.5646 148.294 61.6538 148.424 61.712 148.568Z" fill="white"/>
<path id="Vector_166" d="M70.9728 124.662C70.7948 125.018 70.5226 125.319 70.1858 125.533C69.9812 125.627 69.7526 125.657 69.5307 125.618C69.3087 125.579 69.1039 125.473 68.9435 125.315C68.839 125.207 68.7086 125.128 68.5648 125.084C68.421 125.041 68.2685 125.035 68.1218 125.067C67.9588 125.1 67.808 125.177 67.6863 125.29C67.5279 125.394 67.3794 125.508 67.2161 125.607C67.4289 125.305 67.5873 124.934 68.013 124.746C68.2206 124.663 68.448 124.642 68.667 124.687C68.8861 124.732 69.0872 124.84 69.2454 124.998C69.3531 125.102 69.4856 125.177 69.6303 125.215C69.775 125.253 69.9271 125.253 70.072 125.216C70.2341 125.176 70.3827 125.094 70.5026 124.978C70.661 124.874 70.8045 124.756 70.9728 124.662Z" fill="white"/>
<path id="Vector_167" d="M52.6393 126.567C52.4595 126.923 52.1878 127.224 51.8523 127.438C51.6467 127.532 51.4175 127.562 51.1948 127.523C50.9722 127.484 50.7665 127.379 50.605 127.221C50.5004 127.113 50.3701 127.033 50.2263 126.99C50.0825 126.947 49.93 126.941 49.7833 126.973C49.6203 127.005 49.4695 127.083 49.3477 127.196C49.1943 127.3 49.0458 127.419 48.8528 127.513C49.0706 127.211 49.224 126.839 49.6546 126.651C49.8622 126.568 50.0896 126.548 50.3087 126.593C50.5278 126.638 50.7288 126.746 50.8871 126.904C50.9938 127.008 51.1254 127.082 51.2694 127.12C51.4133 127.158 51.5646 127.159 51.7087 127.122C51.8717 127.081 52.0216 126.999 52.1443 126.884C52.3225 126.78 52.471 126.671 52.6393 126.567Z" fill="white"/>
<path id="Vector_168" d="M55.6338 106.729C55.4572 107.087 55.1848 107.388 54.8468 107.6C54.6423 107.694 54.4144 107.723 54.1928 107.685C53.9712 107.647 53.7662 107.544 53.6045 107.387C53.4996 107.28 53.3695 107.2 53.2259 107.156C53.0823 107.112 52.93 107.105 52.7828 107.135C52.6205 107.169 52.4703 107.246 52.3473 107.358C52.1889 107.462 52.0404 107.58 51.8523 107.674C52.0651 107.372 52.2235 107.001 52.6492 106.813C52.857 106.729 53.0851 106.709 53.3044 106.755C53.5238 106.801 53.7247 106.911 53.8816 107.071C53.9901 107.173 54.1227 107.247 54.2671 107.285C54.4116 107.323 54.5632 107.324 54.7082 107.288C54.8695 107.247 55.0176 107.165 55.1389 107.051C55.322 106.942 55.4705 106.828 55.6338 106.729Z" fill="white"/>
<path id="Vector_169" d="M58.3215 116.772C58.4483 117.15 58.4705 117.555 58.3859 117.945C58.3058 118.156 58.1645 118.338 57.9801 118.467C57.7958 118.597 57.5768 118.668 57.3514 118.672C57.2009 118.669 57.052 118.704 56.9192 118.776C56.7865 118.847 56.6745 118.951 56.5941 119.078C56.4994 119.214 56.4461 119.374 56.4407 119.539C56.406 119.727 56.3813 119.91 56.3318 120.098C56.2003 119.72 56.1865 119.311 56.2922 118.925C56.3786 118.718 56.5245 118.542 56.7114 118.419C56.8982 118.295 57.1176 118.23 57.3415 118.232C57.491 118.229 57.6372 118.188 57.7663 118.113C57.8954 118.037 58.003 117.93 58.079 117.801C58.1624 117.658 58.2099 117.497 58.2176 117.331C58.2522 117.163 58.272 116.975 58.3215 116.772Z" fill="white"/>
<path id="Vector_170" d="M54.7478 141.169C54.8729 141.547 54.8934 141.952 54.8072 142.342C54.7292 142.553 54.589 142.735 54.4053 142.865C54.2215 142.995 54.0027 143.066 53.7776 143.069C53.6268 143.068 53.4779 143.104 53.3447 143.175C53.2115 143.246 53.0983 143.349 53.0154 143.475C52.9251 143.614 52.8739 143.775 52.8669 143.94C52.8323 144.124 52.8075 144.312 52.758 144.5C52.6284 144.12 52.6129 143.71 52.7135 143.322C52.8015 143.116 52.9487 142.94 53.1363 142.818C53.324 142.695 53.5437 142.631 53.7677 142.634C53.9169 142.629 54.0626 142.588 54.1914 142.513C54.3203 142.437 54.4282 142.331 54.5052 142.203C54.5925 142.053 54.6386 141.882 54.6389 141.708C54.6785 141.545 54.7082 141.357 54.7478 141.169Z" fill="white"/>
<path id="Vector_171" d="M74.67 115.109C73.2058 114.441 71.7072 113.851 70.1807 113.342C68.6463 112.748 67.0971 112.223 65.5478 111.694C62.5384 110.659 59.5043 109.738 56.4702 108.828C54.7032 108.293 52.9262 107.838 51.1592 107.343C51.0949 107.343 51.0701 107.452 51.1592 107.476C54.1983 108.615 57.2275 109.798 60.2913 110.862C63.3551 111.926 66.315 112.911 69.3541 113.807C70.2203 114.064 71.0964 114.302 71.9675 114.535C72.853 114.827 73.7555 115.065 74.67 115.247C74.7146 115.257 74.7344 115.143 74.67 115.109Z" fill="#263238"/>
<path id="Vector_172" d="M78.2189 110.134C78.1447 109.892 75.16 109.115 75.0066 109.07C74.962 109.07 74.9422 109.13 75.0066 109.144C75.1501 109.194 77.6794 110.248 77.6695 110.268C76.1846 114.228 74.8284 118.227 73.4029 122.207C71.9774 126.186 70.5173 130.175 69.171 134.2C68.4137 136.452 68.4632 136.674 69.265 134.734C70.0669 132.794 70.8885 131.2 71.626 129.23C73.1109 125.27 74.5017 121.246 75.8926 117.237C76.6647 114.965 78.2437 110.214 78.2189 110.134Z" fill="#263238"/>
</g>
<g id="call-button">
<path id="Vector_173" d="M125.226 157.176H109.912C108.428 157.174 107.005 156.584 105.956 155.534C104.908 154.485 104.319 153.062 104.319 151.578C104.318 150.843 104.462 150.114 104.743 149.435C105.024 148.756 105.435 148.138 105.955 147.618C106.474 147.098 107.091 146.685 107.77 146.403C108.449 146.121 109.177 145.975 109.912 145.975H125.226C126.71 145.976 128.132 146.566 129.181 147.616C130.23 148.666 130.819 150.089 130.819 151.573C130.82 152.308 130.675 153.036 130.395 153.715C130.114 154.395 129.702 155.012 129.183 155.533C128.663 156.053 128.047 156.466 127.368 156.748C126.689 157.03 125.961 157.175 125.226 157.176Z" fill="#455A64"/>
<g id="IaQ7Yo">
<path id="Vector_174" d="M113.263 151.484C113.27 151.306 113.328 151.134 113.431 150.989C113.471 150.919 113.52 150.855 113.565 150.786L113.862 150.494C113.975 150.41 114.084 150.325 114.203 150.246C114.673 149.947 115.198 149.743 115.747 149.647C117.012 149.395 118.314 149.395 119.578 149.647C120.121 149.74 120.639 149.94 121.103 150.236C121.227 150.316 121.34 150.405 121.459 150.489L121.741 150.776C121.817 150.884 121.887 150.996 121.949 151.112C121.997 151.232 122.039 151.354 122.073 151.479H121.984H119.549C119.529 151.482 119.508 151.478 119.49 151.468C119.472 151.458 119.458 151.443 119.45 151.424C119.382 151.291 119.279 151.178 119.153 151.097C119.027 151.016 118.882 150.97 118.732 150.964C118.004 150.917 117.273 150.917 116.544 150.964C116.395 150.97 116.25 151.015 116.124 151.095C115.998 151.175 115.895 151.287 115.827 151.419C115.822 151.437 115.812 151.452 115.797 151.463C115.783 151.474 115.765 151.479 115.747 151.479H113.273L113.263 151.484Z" fill="white"/>
<path id="Vector_175" d="M113.258 152.904V152.048C113.255 152.028 113.255 152.008 113.258 151.989H115.732C115.732 152.043 115.732 152.107 115.732 152.167C115.732 152.409 115.732 152.662 115.732 152.894C115.738 152.937 115.734 152.981 115.72 153.022C115.706 153.063 115.683 153.1 115.652 153.131C115.622 153.162 115.584 153.185 115.543 153.199C115.502 153.212 115.459 153.217 115.416 153.211H113.564C113.523 153.216 113.481 153.211 113.442 153.197C113.402 153.184 113.366 153.161 113.337 153.132C113.307 153.102 113.285 153.066 113.271 153.027C113.258 152.988 113.253 152.946 113.258 152.904Z" fill="white"/>
<path id="Vector_176" d="M119.578 152.904C119.578 152.592 119.578 152.285 119.603 151.974H122.048C122.048 151.974 122.048 152.008 122.048 152.028V152.904C122.053 152.945 122.048 152.986 122.035 153.025C122.021 153.064 121.999 153.099 121.97 153.128C121.941 153.157 121.906 153.179 121.867 153.193C121.828 153.206 121.787 153.211 121.746 153.206H119.875C119.835 153.21 119.794 153.205 119.756 153.191C119.718 153.177 119.683 153.155 119.655 153.126C119.626 153.097 119.604 153.062 119.591 153.024C119.578 152.985 119.574 152.945 119.578 152.904Z" fill="white"/>
</g>
</g>
<g id="speech-bubble">
<path id="Vector_177" d="M119.207 62.9297C118.248 61.5096 117.731 59.8371 117.722 58.1236C117.722 52.0355 124.409 47.1008 132.65 47.1008C140.891 47.1008 147.573 52.0504 147.573 58.1236C147.573 64.1968 140.891 69.1514 132.65 69.1514C128.988 69.2098 125.395 68.1458 122.355 66.1024L117.212 67.4091L119.207 62.9297Z" fill="#E2E8F0"/>
<path id="Vector_178" d="M138.016 58.1236C138.015 58.4304 138.105 58.7306 138.275 58.9861C138.445 59.2417 138.687 59.441 138.97 59.5589C139.253 59.6768 139.565 59.7079 139.866 59.6482C140.167 59.5886 140.444 59.441 140.661 59.224C140.878 59.007 141.025 58.7305 141.085 58.4296C141.144 58.1286 141.113 57.8167 140.995 57.5334C140.878 57.2501 140.678 57.0082 140.423 56.8383C140.167 56.6685 139.867 56.5783 139.56 56.5793C139.151 56.5806 138.759 56.7437 138.47 57.033C138.18 57.3224 138.017 57.7144 138.016 58.1236Z" fill="#263238"/>
<path id="Vector_179" d="M132.645 59.6728C133.501 59.6728 134.195 58.9792 134.195 58.1236C134.195 57.268 133.501 56.5744 132.645 56.5744C131.79 56.5744 131.096 57.268 131.096 58.1236C131.096 58.9792 131.79 59.6728 132.645 59.6728Z" fill="#263238"/>
<path id="Vector_180" d="M124.181 58.1236C124.18 58.4304 124.271 58.7306 124.44 58.9861C124.61 59.2417 124.852 59.441 125.135 59.5589C125.419 59.6768 125.731 59.7079 126.032 59.6482C126.333 59.5886 126.609 59.441 126.826 59.224C127.043 59.007 127.191 58.7305 127.25 58.4296C127.31 58.1286 127.279 57.8167 127.161 57.5334C127.043 57.2501 126.844 57.0082 126.588 56.8383C126.333 56.6685 126.033 56.5783 125.726 56.5793C125.317 56.5806 124.924 56.7437 124.635 57.033C124.346 57.3224 124.183 57.7144 124.181 58.1236Z" fill="#263238"/>
</g>
</g>
</svg>
