<svg width="24" height="45" viewBox="0 0 24 45" fill="none" xmlns="http://www.w3.org/2000/svg">
<path id="Vector 11" d="M11.9543 2L5.48166 37.1522M11.9543 2L18.1958 37.1522M11.9543 2L6.77944 15.2391M11.9543 2L17.1292 15.2391M5.48166 37.1522L11.9543 44M5.48166 37.1522C1.41315 32.8478 1.32068 29.2717 1.78301 28.0217L6.77944 15.2391M11.9543 44L18.1958 37.1522M11.9543 44C11.492 42.6304 10.4286 39.8 9.87384 39.4348L11.9543 37.1522M11.9543 44C12.1392 41.4435 13.2643 39.8913 13.8037 39.4348L11.9543 37.1522M18.1958 37.1522C21.5245 33.5 22.2027 29.5435 22.1256 28.0217L17.1292 15.2391M11.9543 37.1522L1.78301 25.7391C0.567692 24.2174 -0.134469 19.987 6.77944 15.2391M11.9543 37.1522L22.1256 25.7391C23.495 24.5217 24.4129 20.7174 17.1292 15.2391" stroke="#FFB800"/>
</svg>
